<?xml version="1.0" encoding="utf-8"?>
<!-- Generator: Adobe Illustrator 21.1.0, SVG Export Plug-In . SVG Version: 6.00 Build 0)  -->
<svg version="1.1" id="Layer_1" xmlns="http://www.w3.org/2000/svg" xmlns:xlink="http://www.w3.org/1999/xlink" x="0px" y="0px"
	 viewBox="0 0 569 195" style="enable-background:new 0 0 569 195;" xml:space="preserve">
<style type="text/css">
	.st0{enable-background:new    ;}
	.st1{fill:#1D5878;}
	.st2{fill:#10A9A4;}
	.st3{fill:#F15323;}
</style>
<title>Text Layer</title>
<desc>Created with Sketch.</desc>
<g id="Page-1">
	<g id="Calvin-Website" transform="translate(-71.000000, -179.000000)">
		<g id="Slide1" transform="translate(0.000000, 93.000000)">
			<g id="Text-Layer" transform="translate(68.000000, 69.000000)">
				<g class="st0">
					<path class="st1" d="M38.9,37.1c0,4.9-1,9.3-3,13.1c-2,3.8-4.8,6.7-8.5,8.7c-3.7,2-8,3.1-13,3.1h-10l8.8-41.5h9.7
						c5.2,0,9.2,1.4,11.9,4.2C37.5,27.6,38.9,31.7,38.9,37.1z M14.7,57.8c3.8,0,7.2-0.9,10.1-2.6c2.9-1.7,5.1-4.2,6.7-7.3
						c1.5-3.2,2.3-6.8,2.3-10.8c0-4.1-1-7.1-2.9-9.2c-1.9-2.1-4.8-3.1-8.6-3.1h-5.1l-7.1,33.2H14.7z"/>
					<path class="st1" d="M45.5,62h-4.8l6.6-31.1h4.8L45.5,62z M48.7,22.9c0-1.1,0.3-1.9,0.9-2.6c0.6-0.7,1.4-1,2.4-1
						c1.7,0,2.5,0.9,2.5,2.6c0,1-0.3,1.9-1,2.6c-0.6,0.7-1.4,1.1-2.2,1.1c-0.8,0-1.4-0.2-1.9-0.7S48.7,23.8,48.7,22.9z"/>
					<path class="st1" d="M73,53.2c0,3-1,5.3-3.1,6.9s-5,2.5-8.8,2.5c-3.2,0-6.1-0.7-8.7-2v-4.5c1.3,0.8,2.8,1.4,4.3,1.8
						c1.5,0.4,3,0.7,4.3,0.7c2.4,0,4.2-0.5,5.4-1.4c1.2-0.9,1.8-2.2,1.8-3.6c0-1.1-0.3-2-1-2.7c-0.7-0.7-2.1-1.8-4.3-3
						c-2.5-1.4-4.2-2.7-5.2-4.1c-1-1.3-1.5-2.9-1.5-4.7c0-2.6,1-4.7,2.9-6.3c1.9-1.6,4.4-2.4,7.6-2.4c3.2,0,6.4,0.7,9.4,2.1
						l-1.5,3.9l-1.6-0.7c-1.9-0.8-4-1.2-6.2-1.2c-1.8,0-3.1,0.4-4.1,1.2s-1.5,1.9-1.5,3.2c0,1.1,0.3,2,1,2.7
						c0.7,0.8,2.1,1.7,4.2,2.9c2,1.1,3.5,2.1,4.4,2.9s1.5,1.7,2,2.6C72.8,50.9,73,52,73,53.2z"/>
					<path class="st1" d="M89.7,62.6c-3.7,0-6.5-1-8.5-3c-2-2-3-4.9-3-8.6c0-3.8,0.7-7.3,2.1-10.5c1.4-3.2,3.3-5.7,5.8-7.5
						s5.2-2.7,8.3-2.7c2.6,0,5.1,0.5,7.6,1.4l-1.3,4c-2.3-1-4.3-1.4-6.2-1.4c-2.1,0-4.1,0.7-5.8,2.2c-1.8,1.4-3.1,3.5-4.1,6
						c-1,2.6-1.5,5.4-1.5,8.4c0,2.4,0.6,4.3,1.9,5.6c1.3,1.3,3,2,5.2,2c1.4,0,2.6-0.2,3.9-0.6c1.2-0.4,2.4-0.8,3.6-1.3v4.1
						C95.2,62,92.6,62.6,89.7,62.6z"/>
					<path class="st1" d="M118.1,30.5c3.6,0,6.4,1.1,8.5,3.2c2.1,2.1,3.1,5.1,3.1,8.8c0,3.6-0.7,6.9-2,10.1
						c-1.4,3.2-3.2,5.6-5.5,7.3c-2.3,1.7-5,2.6-7.9,2.6c-3.6,0-6.5-1.1-8.5-3.2c-2.1-2.1-3.1-5.1-3.1-8.8c0-3.6,0.7-7,2.1-10.1
						c1.4-3.2,3.2-5.6,5.6-7.3C112.6,31.3,115.2,30.5,118.1,30.5z M124.8,41.8c0-2.2-0.6-3.9-1.8-5.3c-1.2-1.4-2.8-2-4.8-2
						c-2.1,0-3.9,0.7-5.6,2.1c-1.6,1.4-2.9,3.3-3.8,5.8c-0.9,2.5-1.3,5.3-1.3,8.3c0,2.5,0.6,4.4,1.8,5.7c1.2,1.4,2.9,2,5.2,2
						c2,0,3.7-0.7,5.3-2.1c1.6-1.4,2.8-3.3,3.7-5.9C124.3,48,124.8,45.1,124.8,41.8z"/>
					<path class="st1" d="M137.1,62l-3.5-31.1h4.8l1.8,17.4c0.5,4.9,0.7,8.3,0.7,10.3h0.2c2.4-5.2,4.1-8.7,5.1-10.5l9.2-17.1h5.1
						L143.5,62H137.1z"/>
					<path class="st1" d="M169.9,62.6c-3.5,0-6.2-1-8.2-3.1s-3-4.9-3-8.6c0-3.6,0.7-7,2.1-10.2c1.4-3.3,3.3-5.8,5.6-7.6
						c2.3-1.8,4.9-2.7,7.7-2.7c2.9,0,5.1,0.6,6.5,1.9c1.5,1.3,2.2,3,2.2,5.3c0,3.4-1.6,6.1-4.7,8s-7.6,2.9-13.5,2.9h-0.9l-0.1,2.3
						c0,2.5,0.6,4.4,1.7,5.8c1.2,1.4,3,2.1,5.4,2.1c1.2,0,2.4-0.2,3.7-0.5s2.8-1,4.7-1.9v4.1c-1.8,0.8-3.3,1.4-4.7,1.7
						C173,62.4,171.5,62.6,169.9,62.6z M173.8,34.4c-1.9,0-3.8,0.9-5.5,2.7c-1.7,1.8-3,4.2-3.9,7.4h0.3c4.3,0,7.6-0.6,9.9-1.7
						c2.3-1.1,3.4-2.8,3.4-4.9c0-1-0.3-1.8-1-2.5C176.4,34.7,175.3,34.4,173.8,34.4z"/>
					<path class="st1" d="M204.2,30.3c1.3,0,2.4,0.1,3.4,0.4l-1,4.3c-1-0.2-2-0.4-3-0.4c-1.7,0-3.3,0.6-4.8,1.7
						c-1.5,1.1-2.8,2.7-3.9,4.7s-2,4.3-2.5,6.7l-3,14.3h-4.8l6.6-31.1h3.9l-0.6,5.8h0.3c1.4-1.8,2.5-3.1,3.4-3.9
						c0.9-0.8,1.8-1.4,2.8-1.8S203.1,30.3,204.2,30.3z"/>
					<path class="st1" d="M243.6,50c0,4-1.3,7.1-4,9.3c-2.7,2.2-6.4,3.3-11.2,3.3c-2,0-3.8-0.1-5.3-0.4s-3-0.7-4.3-1.4V56
						c3.1,1.6,6.3,2.4,9.7,2.4c3.1,0,5.5-0.7,7.3-2.1c1.8-1.4,2.7-3.4,2.7-5.9c0-1.5-0.5-2.8-1.5-3.9s-2.8-2.5-5.5-4
						c-2.9-1.6-4.8-3.2-5.9-4.8c-1.1-1.6-1.7-3.5-1.7-5.7c0-3.5,1.2-6.4,3.7-8.6s5.8-3.3,9.9-3.3c1.9,0,3.6,0.2,5.2,0.5
						c1.6,0.4,3.3,1,5.1,1.8l-1.9,4.3c-1.2-0.7-2.7-1.3-4.2-1.7c-1.6-0.4-3-0.6-4.3-0.6c-2.5,0-4.6,0.7-6.1,2
						c-1.5,1.3-2.3,3.1-2.3,5.4c0,1,0.2,1.9,0.5,2.6c0.3,0.7,0.8,1.4,1.5,2.1c0.7,0.6,2,1.5,4,2.7c2.8,1.7,4.7,3,5.6,3.9
						s1.7,2,2.2,3.1C243.3,47.1,243.6,48.4,243.6,50z"/>
					<path class="st1" d="M256.4,58.7c1,0,2.4-0.2,4.1-0.7v3.7c-0.6,0.3-1.4,0.5-2.4,0.7c-0.9,0.2-1.7,0.3-2.3,0.3
						c-2.4,0-4.2-0.6-5.4-1.7s-1.9-2.8-1.9-5c0-1.2,0.2-2.7,0.5-4.3l3.6-17.1h-4.9l0.4-2.1l5.3-2.2l3.5-6.5h2.8l-1.6,7.2h7.8
						l-0.7,3.6h-7.8l-3.7,17.1c-0.3,1.6-0.5,2.9-0.5,3.7c0,1.1,0.3,1.9,0.8,2.4C254.6,58.4,255.4,58.7,256.4,58.7z"/>
					<path class="st1" d="M280.5,30.3c1.7,0,3.3,0.5,4.7,1.4c1.4,0.9,2.4,2.3,3.2,4h0.3l1.9-4.9h3.6L287.5,62h-3.8l0.7-5.9h-0.2
						c-3.4,4.3-7,6.5-10.7,6.5c-2.6,0-4.7-0.9-6.2-2.8c-1.5-1.9-2.2-4.4-2.2-7.7c0-3.9,0.7-7.6,2-11c1.3-3.4,3.2-6,5.6-7.9
						C275,31.3,277.6,30.3,280.5,30.3z M275.1,58.6c1.8,0,3.7-0.9,5.5-2.6c1.8-1.8,3.3-4,4.4-6.8s1.7-5.6,1.7-8.4
						c0-1.9-0.5-3.5-1.6-4.7s-2.5-1.7-4.2-1.7c-2,0-3.8,0.8-5.5,2.4c-1.7,1.6-3,3.8-4,6.6c-1,2.8-1.4,5.7-1.4,8.8
						c0,2.2,0.4,3.8,1.3,4.8C272.2,58.1,273.5,58.6,275.1,58.6z"/>
					<path class="st1" d="M304.7,58.7c1,0,2.4-0.2,4.1-0.7v3.7c-0.6,0.3-1.4,0.5-2.4,0.7c-0.9,0.2-1.7,0.3-2.3,0.3
						c-2.4,0-4.2-0.6-5.4-1.7s-1.9-2.8-1.9-5c0-1.2,0.2-2.7,0.5-4.3l3.6-17.1H296l0.4-2.1l5.3-2.2l3.5-6.5h2.8l-1.6,7.2h7.8
						l-0.7,3.6h-7.8l-3.7,17.1c-0.3,1.6-0.5,2.9-0.5,3.7c0,1.1,0.3,1.9,0.8,2.4C302.9,58.4,303.7,58.7,304.7,58.7z"/>
					<path class="st1" d="M324.6,62.6c-3.5,0-6.2-1-8.2-3.1s-3-4.9-3-8.6c0-3.6,0.7-7,2.1-10.2c1.4-3.3,3.3-5.8,5.6-7.6
						c2.3-1.8,4.9-2.7,7.7-2.7c2.9,0,5.1,0.6,6.5,1.9c1.5,1.3,2.2,3,2.2,5.3c0,3.4-1.6,6.1-4.7,8s-7.6,2.9-13.5,2.9h-0.9l-0.1,2.3
						c0,2.5,0.6,4.4,1.7,5.8c1.2,1.4,3,2.1,5.4,2.1c1.2,0,2.4-0.2,3.7-0.5s2.8-1,4.7-1.9v4.1c-1.8,0.8-3.3,1.4-4.7,1.7
						C327.8,62.4,326.3,62.6,324.6,62.6z M328.6,34.4c-1.9,0-3.8,0.9-5.5,2.7c-1.7,1.8-3,4.2-3.9,7.4h0.3c4.3,0,7.6-0.6,9.9-1.7
						c2.3-1.1,3.4-2.8,3.4-4.9c0-1-0.3-1.8-1-2.5C331.1,34.7,330,34.4,328.6,34.4z"/>
					<path class="st1" d="M369.3,30.5c3.6,0,6.4,1.1,8.5,3.2c2.1,2.1,3.1,5.1,3.1,8.8c0,3.6-0.7,6.9-2,10.1
						c-1.4,3.2-3.2,5.6-5.5,7.3c-2.3,1.7-5,2.6-7.9,2.6c-3.6,0-6.5-1.1-8.5-3.2c-2.1-2.1-3.1-5.1-3.1-8.8c0-3.6,0.7-7,2.1-10.1
						c1.4-3.2,3.2-5.6,5.6-7.3C363.8,31.3,366.4,30.5,369.3,30.5z M376,41.8c0-2.2-0.6-3.9-1.8-5.3c-1.2-1.4-2.8-2-4.8-2
						c-2.1,0-3.9,0.7-5.5,2.1c-1.6,1.4-2.9,3.3-3.8,5.8c-0.9,2.5-1.3,5.3-1.3,8.3c0,2.5,0.6,4.4,1.8,5.7c1.2,1.4,2.9,2,5.2,2
						c2,0,3.7-0.7,5.3-2.1c1.6-1.4,2.8-3.3,3.7-5.9C375.6,48,376,45.1,376,41.8z"/>
					<path class="st1" d="M379,76c-1.3,0-2.5-0.2-3.5-0.6v-4c1.2,0.4,2.3,0.6,3.2,0.6c1.4,0,2.5-0.6,3.3-1.8s1.4-2.8,1.9-5l6.4-30.7
						h-5.5l0.4-1.9l5.8-1.9l0.7-2.8c0.9-3.8,2.1-6.5,3.6-8c1.5-1.6,3.8-2.3,6.9-2.3c0.8,0,1.7,0.1,2.8,0.3c1.1,0.2,1.9,0.5,2.6,0.7
						l-1.2,3.7c-1.4-0.5-2.7-0.8-3.9-0.8c-1.6,0-2.9,0.5-3.8,1.4c-0.9,0.9-1.6,2.6-2.1,5l-0.7,3.1h6.8l-0.7,3.6h-6.7l-6.6,31.2
						c-0.7,3.6-1.9,6.2-3.4,7.8C383.5,75.1,381.5,76,379,76z"/>
					<path class="st1" d="M423.1,58.7c1,0,2.4-0.2,4.1-0.7v3.7c-0.6,0.3-1.4,0.5-2.4,0.7c-0.9,0.2-1.7,0.3-2.3,0.3
						c-2.4,0-4.2-0.6-5.4-1.7s-1.9-2.8-1.9-5c0-1.2,0.2-2.7,0.5-4.3l3.6-17.1h-4.9l0.4-2.1l5.3-2.2l3.5-6.5h2.8l-1.6,7.2h7.8
						l-0.7,3.6h-7.8l-3.7,17.1c-0.3,1.6-0.5,2.9-0.5,3.7c0,1.1,0.3,1.9,0.8,2.4C421.4,58.4,422.1,58.7,423.1,58.7z"/>
					<path class="st1" d="M449.8,62l4.2-19.6c0.3-1.8,0.5-3.1,0.5-3.8c0-2.8-1.4-4.2-4.2-4.2c-1.7,0-3.3,0.6-4.9,1.7
						c-1.6,1.1-3,2.7-4.2,4.9c-1.2,2.1-2.1,4.7-2.8,7.7L435.5,62h-4.8l9.4-44.2h4.8c-0.3,1.6-0.7,3.1-1,4.5c-0.3,1.5-0.6,2.9-1,4.4
						c-0.3,1.5-0.7,3.1-1.1,4.7s-0.8,3.4-1.3,5.4h0.3c1.8-2.3,3.5-4,5.3-5c1.7-1,3.5-1.5,5.4-1.5c2.5,0,4.4,0.7,5.7,2
						c1.4,1.4,2,3.3,2,5.8c0,1.2-0.2,2.7-0.7,4.7c-0.7,3.7-2.1,10-4.1,19.1H449.8z"/>
					<path class="st1" d="M474.9,62.6c-3.5,0-6.2-1-8.2-3.1s-3-4.9-3-8.6c0-3.6,0.7-7,2.1-10.2c1.4-3.3,3.3-5.8,5.6-7.6
						c2.3-1.8,4.9-2.7,7.7-2.7c2.9,0,5.1,0.6,6.5,1.9c1.5,1.3,2.2,3,2.2,5.3c0,3.4-1.6,6.1-4.7,8s-7.6,2.9-13.5,2.9h-0.9l-0.1,2.3
						c0,2.5,0.6,4.4,1.7,5.8c1.2,1.4,3,2.1,5.4,2.1c1.2,0,2.4-0.2,3.7-0.5s2.8-1,4.7-1.9v4.1c-1.8,0.8-3.3,1.4-4.7,1.7
						C478.1,62.4,476.5,62.6,474.9,62.6z M478.8,34.4c-1.9,0-3.8,0.9-5.5,2.7c-1.7,1.8-3,4.2-3.9,7.4h0.3c4.3,0,7.6-0.6,9.9-1.7
						c2.3-1.1,3.4-2.8,3.4-4.9c0-1-0.3-1.8-1-2.5C481.4,34.7,480.3,34.4,478.8,34.4z"/>
					<path class="st1" d="M524.4,48.8h-14.1l-7,13.2H498l22.7-41.5h4.9l5.2,41.5H526L524.4,48.8z M523.9,44.4l-1-8.5
						c-0.5-3.4-0.7-6.7-0.8-9.9c-0.7,1.7-1.5,3.3-2.3,5s-3.2,6.1-7.1,13.5H523.9z"/>
					<path class="st1" d="M553.3,30.3c1.3,0,2.4,0.1,3.4,0.4l-1,4.3c-1-0.2-2-0.4-3-0.4c-1.7,0-3.3,0.6-4.8,1.7
						c-1.5,1.1-2.8,2.7-3.9,4.7s-2,4.3-2.5,6.7l-3,14.3h-4.8l6.6-31.1h3.9l-0.6,5.8h0.3c1.4-1.8,2.5-3.1,3.4-3.9
						c0.9-0.8,1.8-1.4,2.8-1.8S552.1,30.3,553.3,30.3z"/>
				</g>
				<g class="st0">
					<path class="st1" d="M562.7,58.7c1,0,2.4-0.2,4.1-0.7v3.7c-0.6,0.3-1.4,0.5-2.4,0.7c-0.9,0.2-1.7,0.3-2.3,0.3
						c-2.4,0-4.2-0.6-5.4-1.7c-1.3-1.1-1.9-2.8-1.9-5c0-1.2,0.2-2.7,0.5-4.3l3.6-17.1h-4.9l0.4-2.1l5.3-2.2l3.5-6.5h2.8l-1.6,7.2
						h7.8l-0.7,3.6h-7.8l-3.7,17.1c-0.3,1.6-0.5,2.9-0.5,3.7c0,1.1,0.3,1.9,0.8,2.4C561,58.4,561.8,58.7,562.7,58.7z"/>
				</g>
				<g class="st0">
					<path class="st2" d="M6.8,106.2h11.8v2.8h-15V82.1h3.1V106.2z"/>
					<path class="st2" d="M50,95.5c0-4.4,1.1-7.8,3.2-10.2c2.2-2.4,5.2-3.6,9.1-3.6s7,1.2,9.1,3.7s3.3,5.8,3.3,10.1
						s-1.1,7.7-3.3,10.1c-2.2,2.5-5.2,3.7-9.1,3.7s-6.9-1.2-9.1-3.6C51.1,103.3,50,99.9,50,95.5z M71.4,95.6c0-3.6-0.8-6.4-2.3-8.2
						c-1.5-1.9-3.8-2.8-6.7-2.8c-3,0-5.2,0.9-6.8,2.8c-1.5,1.9-2.3,4.6-2.3,8.2c0,3.6,0.8,6.4,2.3,8.2c1.5,1.9,3.8,2.8,6.8,2.8
						c3,0,5.2-0.9,6.7-2.8C70.7,101.9,71.4,99.2,71.4,95.6z"/>
					<path class="st2" d="M129.9,109h-3.6l-14.7-22.5h-0.1c0.2,2.6,0.3,5,0.3,7.3V109h-2.9V82.1h3.5l14.6,22.4h0.1l-0.2-3.2
						c-0.1-1.3-0.1-2.2-0.1-2.7s0-0.9,0-1.1V82.1h2.9V109z"/>
					<path class="st2" d="M165.5,82.1h8.2c4.2,0,7.4,1.2,9.7,3.5s3.5,5.5,3.5,9.7c0,4.4-1.2,7.8-3.6,10.2c-2.4,2.3-5.9,3.5-10.4,3.5
						h-7.4V82.1z M168.6,84.8v21.5h3.8c3.7,0,6.5-0.9,8.4-2.7s2.8-4.5,2.8-8.1c0-3.5-0.9-6.2-2.6-8c-1.8-1.8-4.4-2.7-7.8-2.7H168.6z
						"/>
					<path class="st2" d="M219.8,95.5c0-4.4,1.1-7.8,3.2-10.2c2.2-2.4,5.2-3.6,9.1-3.6c3.9,0,7,1.2,9.1,3.7
						c2.2,2.4,3.3,5.8,3.3,10.1s-1.1,7.7-3.3,10.1s-5.2,3.7-9.1,3.7c-3.9,0-6.9-1.2-9.1-3.6C220.8,103.3,219.8,99.9,219.8,95.5z
						 M241.2,95.6c0-3.6-0.8-6.4-2.3-8.2c-1.5-1.9-3.8-2.8-6.7-2.8s-5.2,0.9-6.8,2.8c-1.5,1.9-2.3,4.6-2.3,8.2
						c0,3.6,0.8,6.4,2.3,8.2c1.5,1.9,3.8,2.8,6.8,2.8s5.2-0.9,6.7-2.8C240.4,101.9,241.2,99.2,241.2,95.6z"/>
					<path class="st2" d="M299.7,109h-3.6l-14.7-22.5h-0.1c0.2,2.6,0.3,5,0.3,7.3V109h-2.9V82.1h3.5l14.6,22.4h0.1l-0.2-3.2
						c-0.1-1.3-0.1-2.2-0.1-2.7s0-0.9,0-1.1V82.1h2.9V109z"/>
					<path class="st2" d="M335.3,82.1h8.2c4.2,0,7.4,1.2,9.7,3.5s3.5,5.5,3.5,9.7c0,4.4-1.2,7.8-3.6,10.2c-2.4,2.3-5.9,3.5-10.4,3.5
						h-7.4V82.1z M338.4,84.8v21.5h3.8c3.7,0,6.5-0.9,8.4-2.7s2.8-4.5,2.8-8.1c0-3.5-0.9-6.2-2.6-8c-1.8-1.8-4.4-2.7-7.8-2.7H338.4z
						"/>
					<path class="st2" d="M405.9,84.9H394v8.7h11.1v2.8H394v9.9h11.8v2.8h-15V82.1h15V84.9z"/>
					<path class="st2" d="M440,82.1h7.4c3.3,0,5.7,0.6,7.3,1.9c1.6,1.3,2.4,3.2,2.4,5.7c0,3.6-1.8,6-5.4,7.2L459,109h-3.7l-6.5-11.2
						h-5.6V109H440V82.1z M443.2,84.9v10.3h4.3c2.2,0,3.8-0.4,4.8-1.3c1-0.9,1.6-2.2,1.6-3.9c0-1.8-0.5-3-1.6-3.8s-2.7-1.2-5-1.2
						H443.2z"/>
					<path class="st2" d="M491.5,82.1h7.4c3.3,0,5.7,0.6,7.3,1.9c1.6,1.3,2.4,3.2,2.4,5.7c0,3.6-1.8,6-5.4,7.2l7.3,12.1h-3.7
						l-6.5-11.2h-5.6V109h-3.1V82.1z M494.6,84.9v10.3h4.3c2.2,0,3.8-0.4,4.8-1.3c1-0.9,1.6-2.2,1.6-3.9c0-1.8-0.5-3-1.6-3.8
						s-2.7-1.2-5-1.2H494.6z"/>
				</g>
				<g class="st0">
					<path class="st2" d="M556.3,109h-3.2V98.7l-8.9-16.6h3.4l7.1,13.4l7.2-13.4h3.4l-9,16.4V109z"/>
				</g>
				<g class="st0">
					<path class="st3" d="M72.1,162.3c0,9.7-1.8,18.1-5.3,25.3c-3.6,7.2-8.7,12.7-15.6,16.6c-6.8,3.9-14.8,5.8-24,5.8H5.7l16.5-78.1
						H42c9.7,0,17.1,2.6,22.3,7.7C69.5,144.8,72.1,152.3,72.1,162.3z M27.8,199.3c6.3,0,11.8-1.5,16.5-4.6
						c4.7-3.1,8.3-7.4,10.8-12.9s3.8-11.9,3.8-19c0-6.6-1.6-11.6-4.7-15c-3.1-3.4-7.7-5.2-13.7-5.2h-7.8l-12.1,56.7H27.8z"/>
					<path class="st3" d="M117.6,210H76.1l16.5-78.1h41.5l-2.3,11H103l-4.5,21.1h26.8l-2.2,10.8H96.2l-5.1,24.4h28.8L117.6,210z"/>
					<path class="st3" d="M190.5,210h-13.9l-21.9-62.1h-0.3l-0.5,3.7c-0.9,5.3-1.5,9.1-1.9,11.4c-0.4,2.3-3.7,18-9.8,47.1h-11.7
						l16.5-78.1h14.3l21.3,61.4h0.4c0.2-1.9,0.8-5.4,1.7-10.3c0.9-4.9,1.6-8.6,2.1-10.9l8.5-40.2h11.7L190.5,210z"/>
					<path class="st3" d="M231.7,210H219l14.1-67.2h-20.3l2.4-11h53.3l-2.3,11h-20.4L231.7,210z"/>
					<path class="st3" d="M260.4,210l16.6-78.1h12.6L273,210H260.4z"/>
					<path class="st3" d="M335.8,187.1c0,7.5-2.6,13.3-7.7,17.6c-5.1,4.2-12.2,6.4-21.3,6.4c-7.5,0-13.7-1.3-18.6-4v-12
						c6.2,3.5,12.4,5.2,18.7,5.2c4.9,0,8.7-1,11.5-3.1c2.8-2.1,4.2-5,4.2-8.7c0-2.5-0.7-4.6-2.2-6.5c-1.5-1.9-4.5-4.3-9.2-7.3
						c-3.7-2.4-6.5-4.6-8.3-6.5c-1.8-2-3.1-4.1-4.1-6.4c-0.9-2.3-1.4-4.9-1.4-7.7c0-4.6,1.1-8.6,3.3-12.1c2.2-3.5,5.3-6.3,9.3-8.2
						s8.5-2.9,13.5-2.9c7.3,0,14.1,1.6,20.4,4.9l-4.6,10.2c-5.7-2.8-11-4.2-15.8-4.2c-3.9,0-7,1-9.4,3.1c-2.4,2.1-3.5,4.8-3.5,8.1
						c0,1.7,0.3,3.1,0.8,4.4c0.5,1.3,1.4,2.4,2.5,3.5c1.1,1.1,3.5,2.8,7.2,5.1c5.5,3.5,9.3,6.8,11.4,10
						C334.7,179.3,335.8,183,335.8,187.1z"/>
					<path class="st3" d="M367.7,210h-12.7l14.1-67.2h-20.3l2.4-11h53.3l-2.3,11H382L367.7,210z"/>
					<path class="st3" d="M415.7,178.8l-6.6,31.2h-12.7l16.5-78.1H431c7.9,0,14,1.7,18.3,5c4.2,3.4,6.4,8.5,6.4,15.5
						c0,5.9-1.5,10.8-4.6,14.9c-3.1,4-7.7,7-13.8,8.8l13.3,33.8h-13.9l-11.1-31.2H415.7z M418,168.2h6.6c6.1,0,10.6-1.3,13.6-4
						s4.5-6.3,4.5-11c0-3.7-1.1-6.4-3.2-8.1c-2.1-1.6-5.4-2.5-9.8-2.5h-6.4L418,168.2z"/>
				</g>
				<g class="st0">
					<path class="st3" d="M484,167.6l23.1-35.7h14.2L488,180.7l-6.1,29.3h-12.7l6.4-29.6l-12.7-48.6h12.9L484,167.6z"/>
				</g>
			</g>
		</g>
	</g>
</g>
</svg>
