<?xml version="1.0" encoding="UTF-8"?>
<svg width="178px" height="69px" viewBox="0 0 178 69" version="1.1" xmlns="http://www.w3.org/2000/svg" xmlns:xlink="http://www.w3.org/1999/xlink">
    <!-- Generator: Sketch 44.1 (41455) - http://www.bohemiancoding.com/sketch -->
    <title>Logo</title>
    <desc>Created with Sketch.</desc>
    <defs>
        <rect id="path-1" x="0" y="0" width="171.07056" height="33.3464567"></rect>
        <polygon id="path-3" points="273.383385 16.1915944 273.383385 0.0324566231 0 0.0324566231 1.66590525e-19 16.1915944"></polygon>
        <rect id="path-5" x="0" y="0" width="117.367397" height="19.9212598"></rect>
        <polygon id="path-7" points="183.595202 10.8820131 183.595202 0.0218133798 0 0.0218133798 1.11876664e-19 10.8820131"></polygon>
    </defs>
    <g id="Page-1" stroke="none" stroke-width="1" fill="none" fill-rule="evenodd">
        <g id="Calvin-Website" transform="translate(-22.000000, -13.000000)">
            <g id="Header" transform="translate(22.000000, 13.000000)">
                <g id="Logo">
                    <g id="Group">
                        <g id="Page-1" transform="translate(0.433090, 5.196850)">
                            <mask id="mask-2" fill="white">
                                <use xlink:href="#path-1"></use>
                            </mask>
                            <g id="Mask"></g>
                            <g mask="url(#mask-2)" id="Group-6">
                                <g transform="translate(12.143898, 7.410324)">
                                    <g transform="translate(0.000000, 0.195367)">
                                        <mask id="mask-4" fill="white">
                                            <use xlink:href="#path-3"></use>
                                        </mask>
                                        <g id="Clip-5"></g>
                                        <path d="M8.78048005,16.1915944 C10.0266029,16.1915944 11.5062779,16.0478683 12.2852967,15.7186893 C12.6371613,15.5548724 12.6755744,15.5131455 12.7923504,15.1221488 C12.9844162,14.4205183 13.2179683,12.627806 13.2179683,12.4825345 C13.2179683,12.3187176 13.1795551,12.1719007 13.0812174,12.1719007 C12.9659779,12.1719007 12.9275648,12.2569 12.8891516,12.4825345 C12.8307636,12.8534405 12.5787733,13.7621601 12.1685207,14.2149745 C11.3895019,15.0603311 10.2417166,15.2457841 8.78048005,15.2457841 C4.61342048,15.2457841 1.74933529,11.6371779 1.74933529,7.69939259 C1.74933529,5.59604652 2.08122499,3.7616073 3.5025119,2.31816481 C4.18472962,1.6165343 5.39243936,0.81290465 7.98148633,0.81290465 C9.69624977,0.81290465 11.1958995,1.36926364 11.8765807,1.98898574 C12.3836344,2.44180014 12.6955493,3.28715671 12.6955493,4.09078636 C12.6955493,4.37978395 12.7139876,4.52505547 12.8492019,4.52505547 C12.9659779,4.52505547 13.0043911,4.40142013 13.0243659,4.09078636 C13.0428042,3.78169804 13.0428042,2.64888932 13.0812174,1.96734955 C13.1211671,1.22553757 13.1795551,0.978266906 13.1795551,0.81290465 C13.1795551,0.689269319 13.1396054,0.607360913 12.9275648,0.587270171 C12.3052716,0.545543247 11.6829784,0.423453358 10.9423727,0.279727285 C9.98818979,0.0942742886 8.89725605,0.0324566231 8.11823717,0.0324566231 C5.11893766,0.0324566231 3.34732274,0.998357647 2.17802616,2.2362564 C0.447897442,4.07069562 -0.000768263194,6.48313002 -0.000768263194,7.86475485 C-0.000768263194,9.8228294 0.466335759,12.1734461 2.35319016,13.9677039 C3.89278961,15.4312371 5.85954338,16.1915944 8.78048005,16.1915944 L8.78048005,16.1915944 Z M16.0236654,13.9661584 C15.6933123,14.8532419 15.3614226,15.472964 14.5839402,15.5749632 C14.4471894,15.5965994 14.1936625,15.6166901 14.0768865,15.6166901 C13.9985237,15.6166901 13.9216973,15.6785078 13.9216973,15.7604162 C13.9216973,15.8624153 14.0384733,15.9025968 14.2520505,15.9025968 C14.9527065,15.9025968 15.8100883,15.84387 15.9852523,15.84387 C16.1788546,15.84387 17.1145992,15.9025968 17.5233152,15.9025968 C17.6785044,15.9025968 17.7753055,15.8624153 17.7753055,15.7604162 C17.7753055,15.6785078 17.7368924,15.6166901 17.6001415,15.6166901 L17.4449524,15.6166901 C17.1530123,15.6166901 16.8610723,15.4930548 16.8610723,15.1422395 C16.8610723,14.8331512 16.9578735,14.4004275 17.1145992,13.9661584 L18.0872204,11.1611819 C18.1256335,11.0591827 18.1840215,11.0174558 18.2623844,11.0174558 L22.2143303,11.0174558 C22.3111314,11.0174558 22.3311063,11.0375465 22.3695194,11.1210004 L23.9075823,15.1422395 C24.0243583,15.4312371 23.8491943,15.5749632 23.7523932,15.6166901 C23.6740303,15.658417 23.6356172,15.658417 23.6356172,15.7403254 C23.6356172,15.8423246 23.9075823,15.8423246 24.239472,15.8624153 C25.4272069,15.9025968 26.6917682,15.9025968 26.945295,15.9025968 C27.1388973,15.9025968 27.3340362,15.8624153 27.3340362,15.7604162 C27.3340362,15.658417 27.2172602,15.6166901 27.120459,15.6166901 C26.945295,15.6166901 26.6917682,15.5965994 26.4382413,15.5131455 C26.069475,15.3895102 25.6023709,15.1638757 24.9785412,13.5952524 C23.9275572,10.9355474 21.1833211,3.70133507 20.8714062,2.95952309 C20.6962422,2.56852635 20.6378542,2.32125569 20.4626902,2.32125569 C20.3459142,2.32125569 20.2675513,2.42325484 20.0539742,3.00125001 L16.0236654,13.9661584 Z M18.4959364,10.2988254 C18.4375484,10.2988254 18.4191101,10.2570985 18.4375484,10.1751901 L20.0339993,5.37195748 C20.1308005,5.10305064 20.2291382,5.10305064 20.3259393,5.37195748 L22.0191914,10.1751901 C22.0391663,10.2570985 22.0391663,10.2988254 21.9608034,10.2988254 L18.4959364,10.2988254 Z M31.1507677,7.71948333 C31.1507677,4.99796061 31.1507677,4.50341928 31.1692061,3.94706029 C31.2091557,3.32888364 31.3059569,3.05997679 31.8130106,2.9564322 C32.0066129,2.93634146 32.2601398,2.91625072 32.3769158,2.91625072 C32.4353038,2.91625072 32.5136666,2.85443305 32.5136666,2.79261539 C32.5136666,2.69061624 32.415329,2.65043476 32.2401649,2.65043476 C31.7146729,2.65043476 30.4316734,2.6890708 30.3533105,2.6890708 C30.2565094,2.6890708 29.187087,2.65043476 28.4080681,2.65043476 C28.2129293,2.65043476 28.1345664,2.69061624 28.1345664,2.79261539 C28.1345664,2.85443305 28.2129293,2.93634146 28.2713173,2.93634146 C28.4265065,2.93634146 28.7184465,2.9564322 28.8551973,2.97806839 C29.420639,3.05997679 29.5174402,3.34897438 29.5558533,3.94706029 C29.595803,4.50341928 29.595803,4.99796061 29.595803,7.71948333 L29.595803,10.8134575 C29.595803,12.5041706 29.595803,13.8857955 29.4974653,14.6059713 C29.420639,15.1221488 29.3806893,15.4513278 29.0503362,15.5347817 C28.8936105,15.5765086 28.6800333,15.6166901 28.5248441,15.6166901 C28.4265065,15.6166901 28.3880933,15.6985985 28.3880933,15.7604162 C28.3880933,15.8624153 28.4848945,15.9025968 28.6600585,15.9025968 C28.9335602,15.9025968 29.303863,15.8825061 29.654191,15.8624153 C29.9845442,15.8407791 30.2749477,15.8407791 30.3533105,15.8407791 C30.8588277,15.8407791 31.4427078,15.8624153 32.2217266,15.8825061 C33.0191838,15.924233 33.9733667,15.9443237 35.2010513,15.9443237 C36.1152845,15.9443237 36.1736725,15.8825061 36.2904485,15.4714186 C36.4271994,14.9567865 36.5439754,13.9058862 36.5439754,13.7204332 C36.5439754,13.5349802 36.5055622,13.4515264 36.4271994,13.4515264 C36.3303982,13.4515264 36.2720102,13.555071 36.2520353,13.6787063 C36.1936473,14.0295215 36.0568965,14.4004275 35.8433193,14.6693344 C35.4346033,15.1839664 34.6740227,15.2040572 33.7797644,15.2040572 C32.4353038,15.2040572 31.7730609,15.0804219 31.5010958,14.7929697 C31.1891809,14.4823359 31.1507677,13.4314356 31.1507677,10.853639 L31.1507677,7.71948333 Z M39.7384137,4.79241687 C39.4864234,4.09078636 39.2713097,3.55451812 39.2713097,3.32888364 C39.2713097,3.20524831 39.2912845,3.10170372 39.4664486,3.01824987 C39.6216377,2.9564322 39.8951394,2.93634146 40.0887417,2.93634146 C40.2055177,2.93634146 40.2639057,2.85443305 40.2639057,2.77252465 C40.2639057,2.69061624 40.1087166,2.65043476 39.7968017,2.65043476 C39.1360954,2.65043476 38.3755148,2.6890708 38.2003508,2.6890708 C37.9867736,2.6890708 37.0141524,2.65043476 36.1951839,2.65043476 C35.9232187,2.65043476 35.7480547,2.6705255 35.7480547,2.77252465 C35.7480547,2.83434231 35.7864679,2.93634146 35.8848055,2.93634146 C35.9816067,2.93634146 36.2735467,2.93634146 36.5455119,2.99815913 C37.1109536,3.1418852 37.3445056,3.32888364 37.7332468,4.31796629 L41.9387195,15.0572402 C42.2690727,15.9025968 42.3858487,16.1297767 42.5809875,16.1297767 C42.7561515,16.1297767 42.8529527,15.8624153 43.3200567,14.8099696 C43.7103344,13.9445223 44.4693785,12.0482654 45.5203625,9.49210489 C46.3961826,7.34857734 47.2335894,5.24523127 47.4287283,4.75068994 C47.8758575,3.55451812 48.1493592,3.30724745 48.3829112,3.1418852 C48.6932895,2.93634146 49.0835672,2.93634146 49.2003432,2.93634146 C49.3355575,2.93634146 49.3939455,2.85443305 49.3939455,2.77252465 C49.3939455,2.69061624 49.2971444,2.65043476 49.1219804,2.65043476 C48.6164632,2.65043476 47.8758575,2.6890708 47.7790563,2.6890708 C47.5639426,2.6890708 46.7864603,2.65043476 46.1042426,2.65043476 C45.8322774,2.65043476 45.7155014,2.69061624 45.7155014,2.79416083 C45.7155014,2.8745238 45.8123025,2.93634146 45.9106402,2.93634146 C46.1042426,2.93634146 46.2993814,2.93634146 46.4945203,2.99815913 C46.6696843,3.05997679 46.7280723,3.22533905 46.7280723,3.36906512 C46.7280723,3.51433663 46.6497094,3.7616073 46.5713466,4.0289687 C46.2025802,5.28695819 43.9638613,11.2647264 42.9697287,13.6153432 L39.7384137,4.79241687 Z M53.4841788,7.71948333 C53.4841788,4.99796061 53.4841788,4.50341928 53.5026171,3.94706029 C53.5425668,3.32888364 53.639368,3.08161298 54.106472,2.97806839 C54.3016108,2.93634146 54.4183868,2.93634146 54.5351628,2.93634146 C54.5935508,2.93634146 54.6719137,2.85443305 54.6719137,2.79416083 C54.6719137,2.69061624 54.5935508,2.65043476 54.398412,2.65043476 C53.87292,2.65043476 52.7635479,2.6890708 52.6867216,2.6890708 C52.5899204,2.6890708 51.5189615,2.65043476 50.9550564,2.65043476 C50.7599175,2.65043476 50.6815547,2.69061624 50.6815547,2.79416083 C50.6815547,2.85443305 50.7399427,2.93634146 50.8183055,2.93634146 C50.9350815,2.93634146 51.1501952,2.9564322 51.3437975,2.99815913 C51.7141004,3.08161298 51.8508512,3.34897438 51.8892644,3.94706029 C51.9276776,4.50341928 51.9276776,4.99796061 51.9276776,7.71948333 L51.9276776,10.8134575 C51.9276776,12.5041706 51.9092392,13.88425 51.8308764,14.6059713 C51.7724884,15.1221488 51.7141004,15.4513278 51.3837472,15.5347817 C51.2270215,15.5765086 51.0134444,15.6166901 50.8567187,15.6166901 C50.7599175,15.6166901 50.7215043,15.6985985 50.7215043,15.7604162 C50.7215043,15.8624153 50.8183055,15.9025968 50.9934695,15.9025968 C51.5189615,15.9025968 52.5899204,15.84387 52.6867216,15.84387 C52.7635479,15.84387 53.87292,15.9025968 54.8271029,15.9025968 C55.0222417,15.9025968 55.099068,15.8423246 55.099068,15.7604162 C55.099068,15.6985985 55.0606549,15.6166901 54.9638537,15.6166901 C54.807128,15.6166901 54.4368252,15.5765086 54.1848348,15.5347817 C53.6777811,15.4513278 53.6193931,15.1221488 53.5610051,14.6059713 C53.4841788,13.88425 53.4841788,12.5041706 53.4841788,10.8134575 L53.4841788,7.71948333 Z M59.6364305,5.24523127 C60.1619225,5.86495337 62.0887266,8.00848092 64.0723821,10.2153716 C65.8824102,12.2151731 68.3546812,14.7929697 68.5298452,14.9567865 C69.4855646,15.8840515 69.6607286,16.0262321 69.8358926,16.0262321 C69.9542052,16.0262321 69.97418,15.924233 69.97418,14.7713335 L70.0125932,4.50341928 C70.0125932,3.45251897 70.0510063,3.10170372 70.616448,2.97806839 C70.8100504,2.93634146 70.9468012,2.93634146 71.025164,2.93634146 C71.1419401,2.93634146 71.2203029,2.83434231 71.2203029,2.77252465 C71.2203029,2.6705255 71.083552,2.65043476 70.908388,2.65043476 C70.207732,2.65043476 69.6407538,2.6890708 69.4456149,2.6890708 C69.2504761,2.6890708 68.4315075,2.65043476 67.6540251,2.65043476 C67.4588863,2.65043476 67.3221354,2.6705255 67.3221354,2.77252465 C67.3221354,2.83434231 67.3421103,2.93634146 67.4588863,2.93634146 C67.5956371,2.93634146 67.9843783,2.9564322 68.2962932,3.01979531 C68.8217852,3.12179446 68.9185864,3.51433663 68.9385612,4.64714535 L69.1137252,13.4314356 C68.5882332,12.8534405 66.7582303,10.7717306 65.0649782,8.91565516 C62.4190797,6.03186106 59.9283705,3.22842993 59.6564053,2.93943234 C59.4812413,2.75397935 59.1893013,2.4031641 58.995699,2.4031641 C58.8589481,2.4031641 58.7621469,2.58861709 58.7621469,3.2902476 L58.7621469,13.3294365 C58.7621469,14.916605 58.7037589,15.3895102 58.2750681,15.5131455 C58.0230777,15.5965994 57.7111629,15.6166901 57.574412,15.6166901 C57.4975857,15.6166901 57.4391977,15.6785078 57.4391977,15.7604162 C57.4391977,15.8825061 57.5359989,15.9025968 57.7111629,15.9025968 C58.4901818,15.9025968 59.2092761,15.84387 59.3644653,15.84387 C59.5196544,15.84387 60.2003356,15.9025968 61.1729568,15.9025968 C61.3680957,15.9025968 61.4848717,15.8624153 61.4848717,15.7604162 C61.4848717,15.6785078 61.4264837,15.6166901 61.3481209,15.6166901 C61.1929317,15.6166901 60.8041905,15.5965994 60.4922757,15.5131455 C60.0251716,15.3895102 59.8699825,14.9567865 59.8315693,13.5148895 L59.6364305,5.24523127 Z M82.1081289,9.92637399 C82.1081289,11.9060847 82.1081289,13.5349802 82.0097912,14.4004275 C81.9329649,14.9985134 81.8346272,15.4513278 81.445886,15.5347817 C81.270722,15.5765086 81.03717,15.6166901 80.862006,15.6166901 C80.74523,15.6166901 80.7052803,15.6785078 80.7052803,15.7403254 C80.7052803,15.8624153 80.803618,15.9025968 81.0171952,15.9025968 C81.3091352,15.9025968 81.7578009,15.8624153 82.146542,15.8624153 C82.5552581,15.8407791 82.8856112,15.8407791 82.9240244,15.8407791 C83.0208256,15.8407791 83.6830684,15.9025968 84.5389136,15.9644145 C85.3763205,16.0262321 86.4088662,16.0880498 87.2462731,16.0880498 C90.5574875,16.0880498 92.3106641,14.6476982 93.148071,13.7204332 C94.2374682,12.5041706 95.2485026,10.5043692 95.2485026,7.90648177 C95.2485026,5.45232045 94.3342694,3.74151655 93.3616482,2.66898006 C91.0445664,0.136001213 87.4798251,0.321454209 85.5514845,0.321454209 C84.3837245,0.321454209 83.1575764,0.380180992 82.9240244,0.380180992 C82.8272232,0.380180992 81.6010752,0.321454209 80.7252551,0.321454209 C80.511678,0.321454209 80.4133403,0.361635692 80.4133403,0.483725581 C80.4133403,0.565633988 80.4917031,0.607360913 80.570066,0.607360913 C80.74523,0.607360913 81.0755832,0.627451654 81.2323088,0.669178578 C81.8745769,0.81290465 82.029766,1.14362916 82.0681792,1.84371422 C82.1081289,2.5036178 82.1081289,3.08161298 82.1081289,6.29767702 L82.1081289,9.92637399 Z M83.7414564,5.96849796 C83.7414564,4.37978395 83.7414564,2.27643788 83.7598948,1.57635282 C83.7598948,1.3491729 83.8182828,1.24562831 83.9934468,1.1637199 C84.1501725,1.0818115 84.8708033,1.01999383 85.2595445,1.01999383 C87.5781628,1.01999383 89.7984435,1.30744597 91.6284464,3.34897438 C92.4274401,4.23605788 93.498399,5.92677103 93.498399,8.54474917 C93.498399,10.4425515 92.9529321,12.4207168 91.9403612,13.4731626 C90.7910395,14.6894251 89.1162257,15.3895102 87.3046611,15.3895102 C85.0075542,15.3895102 84.2469736,14.9567865 83.9934468,14.5657898 C83.8382576,14.3386099 83.7998444,13.513344 83.7798696,12.998712 C83.7598948,12.6061698 83.7414564,10.7099129 83.7414564,8.52465842 L83.7414564,5.96849796 Z M98.6380798,10.811912 C98.6380798,12.5026252 98.6380798,13.88425 98.5412786,14.6059713 C98.4629158,15.1221488 98.4245026,15.472964 98.0926129,15.5347817 C97.9374237,15.5548724 97.7238466,15.6166901 97.5671209,15.6166901 C97.4703197,15.6166901 97.43037,15.6985985 97.43037,15.7604162 C97.43037,15.8624153 97.5287077,15.9025968 97.7038717,15.9025968 C97.9758369,15.9025968 98.3661146,15.8825061 98.6964678,15.8624153 C99.0652341,15.8407791 99.3971238,15.8407791 99.435537,15.8407791 C99.6875273,15.8407791 100.134656,15.8407791 100.855287,15.8825061 C101.55748,15.9025968 102.551612,15.9443237 103.837685,15.9443237 C104.496855,15.9443237 104.672019,15.9443237 104.788795,15.4930548 C104.885596,15.1221488 105.022347,13.925977 105.022347,13.8023416 C105.022347,13.6787063 105.002372,13.5334348 104.905571,13.5334348 C104.80877,13.5334348 104.76882,13.5967979 104.730407,13.8023416 C104.633606,14.5039721 104.398517,14.8130605 103.952925,15.0186042 C103.505795,15.2040572 102.686827,15.2040572 102.239698,15.2040572 C100.544909,15.2040572 100.232994,14.9784227 100.193044,13.8023416 C100.174606,13.4515264 100.193044,11.409998 100.193044,10.811912 L100.193044,9.34837882 C100.193044,9.28656115 100.213019,9.22319805 100.30982,9.22319805 C100.603297,9.22319805 102.434836,9.24483423 102.901941,9.30665189 C103.564183,9.3885603 103.719373,9.59564948 103.779297,9.84292014 C103.856123,10.0701001 103.856123,10.2555531 103.856123,10.4193699 C103.856123,10.5229145 103.894537,10.5847321 103.972899,10.5847321 C104.088139,10.5847321 104.126552,10.3992791 104.126552,10.2555531 C104.126552,10.1319177 104.164965,9.47201415 104.204915,9.1211989 C104.243328,8.54629461 104.340129,8.25729702 104.340129,8.15375243 C104.340129,8.05175328 104.301716,8.01002636 104.243328,8.01002636 C104.18494,8.01002636 104.106577,8.11357095 103.991338,8.23720628 C103.81771,8.42265928 103.564183,8.44275002 103.155467,8.48447694 C102.76519,8.52620387 100.504959,8.52620387 100.291382,8.52620387 C100.193044,8.52620387 100.193044,8.4643862 100.193044,8.33920543 L100.193044,3.5761543 C100.193044,3.45251897 100.213019,3.3907013 100.291382,3.3907013 C100.486521,3.3907013 102.47325,3.41079204 102.76519,3.45251897 C103.700934,3.5761543 103.876098,3.69978963 103.991338,3.98878722 C104.068164,4.19433095 104.088139,4.48332854 104.088139,4.60696387 C104.088139,4.75068994 104.126552,4.83414379 104.223353,4.83414379 C104.301716,4.83414379 104.360104,4.7305992 104.380079,4.6486908 C104.418492,4.44314706 104.456905,3.66115359 104.47688,3.49579133 C104.515293,3.00125001 104.613631,2.79416083 104.613631,2.6705255 C104.613631,2.58861709 104.593656,2.50670869 104.535268,2.50670869 C104.456905,2.50670869 104.380079,2.56852635 104.301716,2.58861709 C104.164965,2.60870783 103.856123,2.6705255 103.52577,2.69216168 C103.135493,2.71225242 99.552313,2.69216168 99.435537,2.69216168 C99.3387358,2.69216168 98.2293638,2.65043476 97.4503449,2.65043476 C97.255206,2.65043476 97.1783797,2.69216168 97.1783797,2.79416083 C97.1783797,2.8559785 97.255206,2.9378869 97.313594,2.9378869 C97.4703197,2.93634146 97.7622597,2.9564322 97.8990106,2.97806839 C98.4629158,3.05997679 98.5597169,3.34897438 98.5996666,3.94706029 C98.6380798,4.50341928 98.6380798,4.99950605 98.6380798,7.72102877 L98.6380798,10.811912 Z M109.890063,5.24523127 C110.415555,5.86495337 112.342359,8.00848092 114.326014,10.2153716 C116.136042,12.2151731 118.608313,14.7929697 118.783477,14.9567865 C119.73766,15.8840515 119.914361,16.0262321 120.089525,16.0262321 C120.207837,16.0262321 120.226276,15.924233 120.226276,14.7713335 L120.266225,4.50341928 C120.266225,3.45251897 120.304638,3.10170372 120.87008,2.97806839 C121.063682,2.93634146 121.200433,2.93634146 121.278796,2.93634146 C121.395572,2.93634146 121.472398,2.83434231 121.472398,2.77252465 C121.472398,2.6705255 121.337184,2.65043476 121.16202,2.65043476 C120.461364,2.65043476 119.894386,2.6890708 119.699247,2.6890708 C119.504108,2.6890708 118.68514,2.65043476 117.907657,2.65043476 C117.712518,2.65043476 117.575768,2.6705255 117.575768,2.77252465 C117.575768,2.83434231 117.595742,2.93634146 117.712518,2.93634146 C117.849269,2.93634146 118.23801,2.9564322 118.549925,3.01979531 C119.073881,3.12179446 119.172218,3.51433663 119.190657,4.64714535 L119.367357,13.4314356 C118.841865,12.8534405 117.011862,10.7717306 115.31861,8.91565516 C112.672712,6.03186106 110.182003,3.22842993 109.910037,2.93943234 C109.734873,2.75397935 109.442933,2.4031641 109.249331,2.4031641 C109.11258,2.4031641 109.015779,2.58861709 109.015779,3.2902476 L109.015779,13.3294365 C109.015779,14.916605 108.957391,15.3895102 108.5287,15.5131455 C108.27671,15.5965994 107.964795,15.6166901 107.828044,15.6166901 C107.751218,15.6166901 107.69283,15.6785078 107.69283,15.7604162 C107.69283,15.8825061 107.789631,15.9025968 107.964795,15.9025968 C108.743814,15.9025968 109.462908,15.84387 109.618097,15.84387 C109.773287,15.84387 110.453968,15.9025968 111.426589,15.9025968 C111.621728,15.9025968 111.738504,15.8624153 111.738504,15.7604162 C111.738504,15.6785078 111.680116,15.6166901 111.601753,15.6166901 C111.446564,15.6166901 111.057823,15.5965994 110.745908,15.5131455 C110.278804,15.3895102 110.123615,14.9567865 110.085201,13.5148895 L109.890063,5.24523127 Z M129.320975,3.45251897 L131.45982,3.49270045 C133.094684,3.53442738 133.46345,3.92542411 133.521838,4.46169236 L133.541813,4.64714535 C133.560252,4.89441602 133.600201,4.95623368 133.678564,4.95623368 C133.756927,4.95623368 133.836826,4.87432528 133.836826,4.7305992 C133.836826,4.52660091 133.895214,3.26861141 133.895214,2.73234317 C133.895214,2.63034402 133.895214,2.52679943 133.816851,2.52679943 C133.738489,2.52679943 133.580226,2.56852635 133.3267,2.60870783 C133.054734,2.65043476 132.665993,2.69216168 132.102088,2.69216168 L125.644068,2.69216168 C125.448929,2.69216168 124.786686,2.6705255 124.301144,2.60870783 C123.832503,2.54689017 123.657339,2.4031641 123.540563,2.4031641 C123.482175,2.4031641 123.385374,2.63034402 123.365399,2.73234317 C123.326986,2.87606924 122.996633,4.44160162 122.996633,4.62705461 C122.996633,4.7305992 123.073459,4.77078069 123.113409,4.77078069 C123.190235,4.77078069 123.248623,4.75068994 123.288573,4.60696387 C123.346961,4.48332854 123.365399,4.35969321 123.560538,4.04905944 C123.814065,3.63797196 124.222781,3.51433663 125.29374,3.49270045 L127.766011,3.45251897 L127.766011,10.8134575 C127.766011,12.5041706 127.766011,13.88425 127.687648,14.6059713 C127.62926,15.1221488 127.532459,15.472964 127.18213,15.5548724 C127.026941,15.5965994 126.831802,15.6383263 126.676613,15.6383263 C126.578276,15.6383263 126.539862,15.6985985 126.539862,15.7604162 C126.539862,15.8624153 126.618225,15.9025968 126.811828,15.9025968 C127.318881,15.9025968 128.50508,15.84387 128.583443,15.84387 C128.680244,15.84387 129.768104,15.9025968 130.702312,15.9025968 C130.895915,15.9025968 130.974278,15.8423246 130.974278,15.7604162 C130.974278,15.6985985 130.954303,15.6166901 130.837527,15.6166901 C130.682338,15.6166901 130.293596,15.5765086 130.060044,15.5347817 C129.536089,15.4513278 129.457726,15.1221488 129.399338,14.6059713 C129.320975,13.88425 129.320975,12.5041706 129.320975,10.8134575 L129.320975,3.45251897 Z M135.242748,13.9661584 C134.912395,14.8532419 134.580505,15.472964 133.801486,15.5749632 C133.666272,15.5965994 133.412745,15.6166901 133.295969,15.6166901 C133.217606,15.6166901 133.14078,15.6785078 133.14078,15.7604162 C133.14078,15.8624153 133.257556,15.9025968 133.471133,15.9025968 C134.171789,15.9025968 135.029171,15.84387 135.204335,15.84387 C135.397937,15.84387 136.332145,15.9025968 136.742398,15.9025968 C136.897587,15.9025968 136.994388,15.8624153 136.994388,15.7604162 C136.994388,15.6785078 136.955975,15.6166901 136.819224,15.6166901 L136.664035,15.6166901 C136.372095,15.6166901 136.080155,15.4930548 136.080155,15.1422395 C136.080155,14.8331512 136.176956,14.4004275 136.332145,13.9661584 L137.306303,11.1611819 C137.344716,11.0591827 137.403104,11.0174558 137.481467,11.0174558 L141.433413,11.0174558 C141.530214,11.0174558 141.550189,11.0375465 141.588602,11.1210004 L143.126665,15.1422395 C143.243441,15.4312371 143.068277,15.5749632 142.971476,15.6166901 C142.893113,15.658417 142.8547,15.658417 142.8547,15.7403254 C142.8547,15.8423246 143.126665,15.8423246 143.458555,15.8624153 C144.644753,15.9025968 145.910851,15.9025968 146.164377,15.9025968 C146.35798,15.9025968 146.553119,15.8624153 146.553119,15.7604162 C146.553119,15.658417 146.436343,15.6166901 146.339542,15.6166901 C146.164377,15.6166901 145.910851,15.5965994 145.657324,15.5131455 C145.287021,15.3895102 144.819917,15.1638757 144.197624,13.5952524 C143.14664,10.9355474 140.400867,3.70133507 140.090489,2.95952309 C139.915325,2.56852635 139.856937,2.32125569 139.681773,2.32125569 C139.564997,2.32125569 139.486634,2.42325484 139.273057,3.00125001 L135.242748,13.9661584 Z M137.715019,10.2988254 C137.656631,10.2988254 137.636656,10.2570985 137.656631,10.1751901 L139.253082,5.37195748 C139.349883,5.10305064 139.448221,5.10305064 139.545022,5.37195748 L141.238274,10.1751901 C141.258249,10.2570985 141.258249,10.2988254 141.179886,10.2988254 L137.715019,10.2988254 Z M150.36985,7.71948333 C150.36985,4.99796061 150.36985,4.50341928 150.388289,3.94706029 C150.428238,3.32888364 150.525039,3.05997679 151.030557,2.9564322 C151.225695,2.93634146 151.479222,2.91625072 151.595998,2.91625072 C151.654386,2.91625072 151.732749,2.85443305 151.732749,2.79261539 C151.732749,2.69061624 151.634411,2.65043476 151.459247,2.65043476 C150.933755,2.65043476 149.649219,2.6890708 149.572393,2.6890708 C149.475592,2.6890708 148.404633,2.65043476 147.625614,2.65043476 C147.432012,2.65043476 147.353649,2.69061624 147.353649,2.79261539 C147.353649,2.85443305 147.432012,2.93634146 147.4904,2.93634146 C147.645589,2.93634146 147.937529,2.9564322 148.07428,2.97806839 C148.638185,3.05997679 148.736523,3.34897438 148.774936,3.94706029 C148.813349,4.50341928 148.813349,4.99796061 148.813349,7.71948333 L148.813349,10.8134575 C148.813349,12.5041706 148.813349,13.8857955 148.716548,14.6059713 C148.638185,15.1221488 148.599772,15.4513278 148.269419,15.5347817 C148.112693,15.5765086 147.899116,15.6166901 147.74239,15.6166901 C147.645589,15.6166901 147.607176,15.6985985 147.607176,15.7604162 C147.607176,15.8624153 147.703977,15.9025968 147.879141,15.9025968 C148.152643,15.9025968 148.521409,15.8825061 148.871737,15.8624153 C149.20209,15.8407791 149.49403,15.8407791 149.572393,15.8407791 C150.07791,15.8407791 150.66179,15.8624153 151.440809,15.8825061 C152.238266,15.924233 153.192449,15.9443237 154.418597,15.9443237 C155.334367,15.9443237 155.392755,15.8825061 155.509531,15.4714186 C155.646282,14.9567865 155.763058,13.9058862 155.763058,13.7204332 C155.763058,13.5349802 155.723108,13.4515264 155.646282,13.4515264 C155.547944,13.4515264 155.489556,13.555071 155.471118,13.6787063 C155.41273,14.0295215 155.275979,14.4004275 155.062402,14.6693344 C154.652149,15.1839664 153.893105,15.2040572 152.99731,15.2040572 C151.654386,15.2040572 150.992143,15.0804219 150.720178,14.7929697 C150.408263,14.4823359 150.36985,13.4314356 150.36985,10.853639 L150.36985,7.71948333 Z M164.390654,13.6369794 C164.038789,14.6677889 163.650048,15.4513278 162.754253,15.5749632 C162.599064,15.5965994 162.327099,15.6166901 162.190348,15.6166901 C162.093547,15.6166901 162.015184,15.658417 162.015184,15.7403254 C162.015184,15.8624153 162.13196,15.9025968 162.385487,15.9025968 C163.29972,15.9025968 164.370679,15.84387 164.584256,15.84387 C164.79937,15.84387 165.63524,15.9025968 166.102344,15.9025968 C166.279044,15.9025968 166.39582,15.8624153 166.39582,15.7403254 C166.39582,15.658417 166.337432,15.6166901 166.200682,15.6166901 L166.005543,15.6166901 C165.67519,15.6166901 165.266474,15.4312371 165.266474,15.0186042 C165.266474,14.6476982 165.363275,14.1531569 165.538439,13.6369794 L166.706199,9.98664621 C166.746148,9.88310162 166.804536,9.82128396 166.901338,9.82128396 L171.086836,9.82128396 C171.183637,9.82128396 171.223586,9.86301088 171.262,9.94491929 L173.072028,15.0186042 C173.188804,15.3493287 173.072028,15.5347817 172.955252,15.5749632 C172.878425,15.5965994 172.820037,15.6367808 172.820037,15.7186893 C172.820037,15.8423246 173.033614,15.8423246 173.403917,15.8624153 C174.746841,15.9025968 176.168128,15.9025968 176.460068,15.9025968 C176.673645,15.9025968 176.848809,15.8624153 176.848809,15.7403254 C176.848809,15.6367808 176.771983,15.6166901 176.655207,15.6166901 C176.460068,15.6166901 176.168128,15.5965994 175.876188,15.4930548 C175.467472,15.3694194 174.902031,15.0402404 174.201375,13.2042557 C173.01364,10.0685546 169.957489,1.55780752 169.665549,0.774268609 C169.431997,0.136001213 169.353634,0.0324566231 169.236858,0.0324566231 C169.120082,0.0324566231 169.043255,0.156091954 168.809703,0.836086275 L164.390654,13.6369794 Z M167.114915,9.08256286 C167.056527,9.08256286 167.018114,9.04083593 167.056527,8.93729134 L168.769754,3.372156 C168.868091,3.06306768 168.964893,3.06306768 169.061694,3.372156 L170.911672,8.93729134 C170.931646,9.02074519 170.931646,9.08256286 170.833309,9.08256286 L167.114915,9.08256286 Z M180.413551,16.1297767 C181.347759,16.1297767 182.420254,16.0061414 183.140885,15.5131455 C184.365497,14.6677889 184.734263,13.555071 184.734263,12.5242614 C184.734263,11.0190012 184.015169,9.80273866 181.933175,8.2974785 L181.446096,7.94666325 C179.749771,6.73040068 179.224279,6.09058784 179.224279,4.97786987 C179.224279,3.73997111 180.256825,3.08006753 181.502948,3.08006753 C183.042547,3.08006753 183.607989,3.73997111 183.723229,3.94706029 C183.821566,4.13251329 183.956781,4.60696387 183.976755,4.81250761 C183.99673,4.95777912 184.015169,5.03968753 184.131945,5.03968753 C184.248721,5.03968753 184.268695,4.9160522 184.268695,4.64714535 C184.268695,3.45251897 184.345522,2.87606924 184.345522,2.79416083 C184.345522,2.69216168 184.307109,2.6705255 184.170358,2.6705255 C184.035143,2.6705255 183.898393,2.6705255 183.568039,2.58861709 C183.159323,2.4850725 182.477106,2.38307335 181.796424,2.38307335 C179.536194,2.38307335 177.999668,3.61633578 177.999668,5.67795493 C177.999668,6.89576294 178.601986,7.96675399 180.451964,9.43183267 L181.230983,10.0500093 C182.750607,11.2461811 183.392875,11.8442671 183.392875,13.1022566 C183.392875,14.4205183 182.517055,15.4312371 180.822267,15.4312371 C179.672945,15.4312371 178.386872,14.9784227 178.114907,13.698797 C178.056519,13.4515264 178.056519,13.2042557 178.056519,13.0605296 C178.056519,12.9152581 177.998131,12.8534405 177.90133,12.8534405 C177.804529,12.8534405 177.766116,12.956985 177.766116,13.142438 C177.746141,13.4314356 177.669315,14.1330661 177.669315,14.9985134 C177.669315,15.472964 177.687753,15.5347817 177.921305,15.6568716 C178.620424,16.0061414 179.614557,16.1297767 180.413551,16.1297767 L180.413551,16.1297767 Z M190.616086,16.1297767 C191.550294,16.1297767 192.621253,16.0061414 193.34342,15.5131455 C194.568032,14.6677889 194.936798,13.555071 194.936798,12.5242614 C194.936798,11.0190012 194.217704,9.80273866 192.134174,8.2974785 L191.648632,7.94666325 C189.952307,6.73040068 189.426814,6.09058784 189.426814,4.97786987 C189.426814,3.73997111 190.45936,3.08006753 191.705483,3.08006753 C193.245083,3.08006753 193.808988,3.73997111 193.925764,3.94706029 C194.024101,4.13251329 194.159316,4.60696387 194.179291,4.81250761 C194.197729,4.95777912 194.217704,5.03968753 194.33448,5.03968753 C194.451256,5.03968753 194.471231,4.9160522 194.471231,4.64714535 C194.471231,3.45251897 194.548057,2.87606924 194.548057,2.79416083 C194.548057,2.69216168 194.509644,2.6705255 194.372893,2.6705255 C194.237679,2.6705255 194.100928,2.6705255 193.770575,2.58861709 C193.361859,2.4850725 192.679641,2.38307335 191.99896,2.38307335 C189.738729,2.38307335 188.202203,3.61633578 188.202203,5.67795493 C188.202203,6.89576294 188.804521,7.96675399 190.654499,9.43183267 L191.433518,10.0500093 C192.953143,11.2461811 193.595411,11.8442671 193.595411,13.1022566 C193.595411,14.4205183 192.719591,15.4312371 191.024802,15.4312371 C189.87548,15.4312371 188.589408,14.9784227 188.317442,13.698797 C188.259054,13.4515264 188.259054,13.2042557 188.259054,13.0605296 C188.259054,12.9152581 188.200666,12.8534405 188.103865,12.8534405 C188.007064,12.8534405 187.968651,12.956985 187.968651,13.142438 C187.948676,13.4314356 187.87185,14.1330661 187.87185,14.9985134 C187.87185,15.472964 187.890288,15.5347817 188.122304,15.6568716 C188.82296,16.0061414 189.817092,16.1297767 190.616086,16.1297767 L190.616086,16.1297767 Z M196.361158,9.24637967 C196.361158,12.4006261 198.363252,16.1297767 203.05734,16.1297767 C207.185986,16.1297767 209.928686,12.8951674 209.928686,8.97747282 C209.928686,4.89596146 207.010822,2.4031641 203.154141,2.4031641 C198.42164,2.4031641 196.361158,6.42131236 196.361158,9.24637967 L196.361158,9.24637967 Z M198.1297,8.77192909 C198.1297,4.95777912 200.194791,3.05997679 203.05734,3.05997679 C205.7647,3.05997679 208.178583,5.26686745 208.178583,9.47201415 C208.178583,14.5441536 205.082482,15.4111464 203.544419,15.4111464 C200.446782,15.4111464 198.1297,12.8534405 198.1297,8.77192909 L198.1297,8.77192909 Z M219.82238,16.1297767 C220.931752,16.1297767 222.217824,16.0262321 222.91848,15.73878 C223.21042,15.6166901 223.248833,15.5548724 223.345635,15.2256934 C223.520799,14.6276075 223.752814,13.1022566 223.752814,12.9770758 C223.752814,12.8534405 223.675988,12.7282597 223.597625,12.7282597 C223.482385,12.7282597 223.462411,12.7916228 223.423997,12.9770758 C223.365609,13.3078003 223.132057,14.0496123 222.763291,14.4421545 C222.081073,15.1638757 221.223692,15.2658749 219.939156,15.2658749 C216.277613,15.2658749 213.765392,12.2769907 213.765392,8.91565516 C213.765392,7.1430336 214.037358,5.57595578 215.303455,4.33805703 C215.90731,3.73997111 216.958294,3.12179446 219.160137,3.12179446 C220.678225,3.12179446 221.925884,3.55451812 222.529739,4.09078636 C222.976868,4.46169236 223.248833,5.16332286 223.248833,5.84331718 C223.248833,6.09058784 223.268808,6.21576862 223.385584,6.21576862 C223.482385,6.21576862 223.559212,6.11222403 223.57765,5.84331718 C223.597625,5.59604652 223.597625,4.62705461 223.6176,4.05060488 C223.656013,3.41079204 223.694426,3.20524831 223.694426,3.05997679 C223.694426,2.95797764 223.656013,2.87606924 223.482385,2.87606924 C222.91848,2.85443305 222.373013,2.73234317 221.730745,2.60870783 C220.893338,2.46498176 219.919181,2.4031641 219.236963,2.4031641 C216.607966,2.4031641 215.049929,3.22533905 214.017383,4.27623936 C212.500831,5.84331718 212.092115,7.88484559 212.092115,9.06092667 C212.092115,10.7300036 212.500831,12.7298051 214.174109,14.2567015 C215.517033,15.4930548 217.251771,16.1297767 219.82238,16.1297767 L219.82238,16.1297767 Z M229.379574,7.71948333 C229.379574,4.99796061 229.379574,4.50341928 229.399548,3.94706029 C229.437962,3.32888364 229.536299,3.08161298 230.003403,2.97806839 C230.198542,2.93634146 230.315318,2.93634146 230.432094,2.93634146 C230.490482,2.93634146 230.567309,2.85443305 230.567309,2.79416083 C230.567309,2.69061624 230.490482,2.65043476 230.295343,2.65043476 C229.769851,2.65043476 228.660479,2.6890708 228.583653,2.6890708 C228.485315,2.6890708 227.415893,2.65043476 226.851988,2.65043476 C226.656849,2.65043476 226.578486,2.69061624 226.578486,2.79416083 C226.578486,2.85443305 226.636874,2.93634146 226.715237,2.93634146 C226.832013,2.93634146 227.04559,2.9564322 227.240729,2.99815913 C227.611032,3.08161298 227.747783,3.34897438 227.786196,3.94706029 C227.824609,4.50341928 227.824609,4.99796061 227.824609,7.71948333 L227.824609,10.8134575 C227.824609,12.5041706 227.806171,13.88425 227.727808,14.6059713 C227.66942,15.1221488 227.611032,15.4513278 227.279142,15.5347817 C227.123953,15.5765086 226.910376,15.6166901 226.75365,15.6166901 C226.656849,15.6166901 226.618436,15.6985985 226.618436,15.7604162 C226.618436,15.8624153 226.715237,15.9025968 226.890401,15.9025968 C227.415893,15.9025968 228.485315,15.84387 228.583653,15.84387 C228.660479,15.84387 229.769851,15.9025968 230.724034,15.9025968 C230.919173,15.9025968 230.995999,15.8423246 230.995999,15.7604162 C230.995999,15.6985985 230.957586,15.6166901 230.860785,15.6166901 C230.704059,15.6166901 230.333757,15.5765086 230.081766,15.5347817 C229.574712,15.4513278 229.516324,15.1221488 229.457936,14.6059713 C229.379574,13.88425 229.379574,12.5041706 229.379574,10.8134575 L229.379574,7.71948333 Z M233.976861,13.9661584 C233.646507,14.8532419 233.316154,15.472964 232.537135,15.5749632 C232.400385,15.5965994 232.146858,15.6166901 232.030082,15.6166901 C231.953255,15.6166901 231.874893,15.6785078 231.874893,15.7604162 C231.874893,15.8624153 231.991669,15.9025968 232.205246,15.9025968 C232.905902,15.9025968 233.763283,15.84387 233.938447,15.84387 C234.133586,15.84387 235.067794,15.9025968 235.47651,15.9025968 C235.6317,15.9025968 235.730037,15.8624153 235.730037,15.7604162 C235.730037,15.6785078 235.690088,15.6166901 235.554873,15.6166901 L235.398148,15.6166901 C235.106207,15.6166901 234.814267,15.4930548 234.814267,15.1422395 C234.814267,14.8331512 234.911069,14.4004275 235.067794,13.9661584 L236.040416,11.1611819 C236.080365,11.0591827 236.138753,11.0174558 236.21558,11.0174558 L240.167525,11.0174558 C240.265863,11.0174558 240.284301,11.0375465 240.324251,11.1210004 L241.860777,15.1422395 C241.977554,15.4312371 241.802389,15.5749632 241.705588,15.6166901 C241.627225,15.658417 241.588812,15.658417 241.588812,15.7403254 C241.588812,15.8423246 241.860777,15.8423246 242.192667,15.8624153 C243.380402,15.9025968 244.644963,15.9025968 244.89849,15.9025968 C245.093629,15.9025968 245.287231,15.8624153 245.287231,15.7604162 C245.287231,15.658417 245.170455,15.6166901 245.073654,15.6166901 C244.89849,15.6166901 244.644963,15.5965994 244.392973,15.5131455 C244.02267,15.3895102 243.555566,15.1638757 242.931736,13.5952524 C241.880752,10.9355474 239.136516,3.70133507 238.824601,2.95952309 C238.649437,2.56852635 238.591049,2.32125569 238.415885,2.32125569 C238.299109,2.32125569 238.220746,2.42325484 238.007169,3.00125001 L233.976861,13.9661584 Z M236.449132,10.2988254 C236.390744,10.2988254 236.372305,10.2570985 236.390744,10.1751901 L237.987194,5.37195748 C238.085532,5.10305064 238.182333,5.10305064 238.279134,5.37195748 L239.973923,10.1751901 C239.992361,10.2570985 239.992361,10.2988254 239.913999,10.2988254 L236.449132,10.2988254 Z M249.629455,3.45251897 L251.7683,3.49270045 C253.401627,3.53442738 253.77193,3.92542411 253.830318,4.46169236 L253.848756,4.64714535 C253.868731,4.89441602 253.908681,4.95623368 253.987044,4.95623368 C254.065407,4.95623368 254.143769,4.87432528 254.143769,4.7305992 C254.143769,4.52660091 254.203694,3.26861141 254.203694,2.73234317 C254.203694,2.63034402 254.203694,2.52679943 254.125331,2.52679943 C254.045432,2.52679943 253.888706,2.56852635 253.635179,2.60870783 C253.363214,2.65043476 252.974473,2.69216168 252.410568,2.69216168 L245.952547,2.69216168 C245.757408,2.69216168 245.095166,2.6705255 244.608087,2.60870783 C244.140983,2.54689017 243.965819,2.4031641 243.849043,2.4031641 C243.790655,2.4031641 243.693853,2.63034402 243.673879,2.73234317 C243.635465,2.87606924 243.303576,4.44160162 243.303576,4.62705461 C243.303576,4.7305992 243.381939,4.77078069 243.420352,4.77078069 C243.498715,4.77078069 243.557103,4.75068994 243.595516,4.60696387 C243.653904,4.48332854 243.673879,4.35969321 243.869017,4.04905944 C244.122544,3.63797196 244.53126,3.51433663 245.602219,3.49270045 L248.07449,3.45251897 L248.07449,10.8134575 C248.07449,12.5041706 248.07449,13.88425 247.996127,14.6059713 C247.937739,15.1221488 247.840938,15.472964 247.49061,15.5548724 C247.333884,15.5965994 247.140282,15.6383263 246.983556,15.6383263 C246.886755,15.6383263 246.848342,15.6985985 246.848342,15.7604162 C246.848342,15.8624153 246.925168,15.9025968 247.120307,15.9025968 C247.625825,15.9025968 248.813559,15.84387 248.890386,15.84387 C248.988723,15.84387 250.076584,15.9025968 251.010792,15.9025968 C251.204394,15.9025968 251.282757,15.8423246 251.282757,15.7604162 C251.282757,15.6985985 251.262782,15.6166901 251.146006,15.6166901 C250.990817,15.6166901 250.602076,15.5765086 250.368524,15.5347817 C249.843032,15.4513278 249.766206,15.1221488 249.707818,14.6059713 C249.629455,13.88425 249.629455,12.5041706 249.629455,10.8134575 L249.629455,3.45251897 Z M257.769972,10.811912 C257.769972,12.5026252 257.769972,13.88425 257.673171,14.6059713 C257.594808,15.1221488 257.556395,15.472964 257.226041,15.5347817 C257.069316,15.5548724 256.855739,15.6166901 256.699013,15.6166901 C256.602212,15.6166901 256.563799,15.6985985 256.563799,15.7604162 C256.563799,15.8624153 256.6606,15.9025968 256.835764,15.9025968 C257.109265,15.9025968 257.498007,15.8825061 257.82836,15.8624153 C258.198663,15.8407791 258.529016,15.8407791 258.567429,15.8407791 C258.820956,15.8407791 259.268085,15.8407791 259.988716,15.8825061 C260.689372,15.9025968 261.683504,15.9443237 262.969577,15.9443237 C263.628747,15.9443237 263.803911,15.9443237 263.920687,15.4930548 C264.017488,15.1221488 264.154239,13.925977 264.154239,13.8023416 C264.154239,13.6787063 264.134264,13.5334348 264.037463,13.5334348 C263.940662,13.5334348 263.900712,13.5967979 263.862299,13.8023416 C263.765498,14.5039721 263.531946,14.8130605 263.084817,15.0186042 C262.637687,15.2040572 261.820255,15.2040572 261.37159,15.2040572 C259.676801,15.2040572 259.364886,14.9784227 259.326473,13.8023416 C259.306498,13.4515264 259.326473,11.409998 259.326473,10.811912 L259.326473,9.34837882 C259.326473,9.28656115 259.344911,9.22319805 259.443249,9.22319805 C259.735189,9.22319805 261.566728,9.24483423 262.033832,9.30665189 C262.696075,9.3885603 262.852801,9.59564948 262.911189,9.84292014 C262.988015,10.0701001 262.988015,10.2555531 262.988015,10.4193699 C262.988015,10.5229145 263.027965,10.5847321 263.104791,10.5847321 C263.220031,10.5847321 263.258444,10.3992791 263.258444,10.2555531 C263.258444,10.1319177 263.298394,9.47201415 263.336807,9.1211989 C263.37522,8.54629461 263.473558,8.25729702 263.473558,8.15375243 C263.473558,8.05175328 263.433608,8.01002636 263.37522,8.01002636 C263.316832,8.01002636 263.240006,8.11357095 263.12323,8.23720628 C262.949602,8.42265928 262.696075,8.44275002 262.287359,8.48447694 C261.897082,8.52620387 259.636851,8.52620387 259.423274,8.52620387 C259.326473,8.52620387 259.326473,8.4643862 259.326473,8.33920543 L259.326473,3.5761543 C259.326473,3.45251897 259.344911,3.3907013 259.423274,3.3907013 C259.618413,3.3907013 261.605142,3.41079204 261.897082,3.45251897 C262.832826,3.5761543 263.00799,3.69978963 263.12323,3.98878722 C263.201593,4.19433095 263.220031,4.48332854 263.220031,4.60696387 C263.220031,4.75068994 263.258444,4.83414379 263.356782,4.83414379 C263.433608,4.83414379 263.491996,4.7305992 263.511971,4.6486908 C263.550384,4.44314706 263.590334,3.66115359 263.608772,3.49579133 C263.648722,3.00125001 263.745523,2.79416083 263.745523,2.6705255 C263.745523,2.58861709 263.725548,2.50670869 263.66716,2.50670869 C263.590334,2.50670869 263.511971,2.56852635 263.433608,2.58861709 C263.298394,2.60870783 262.988015,2.6705255 262.657662,2.69216168 C262.267384,2.71225242 258.684205,2.69216168 258.567429,2.69216168 C258.470628,2.69216168 257.361256,2.65043476 256.582237,2.65043476 C256.388635,2.65043476 256.310272,2.69216168 256.310272,2.79416083 C256.310272,2.8559785 256.388635,2.9378869 256.447023,2.9378869 C256.602212,2.93634146 256.894152,2.9564322 257.030903,2.97806839 C257.594808,3.05997679 257.693145,3.34897438 257.731559,3.94706029 C257.769972,4.50341928 257.769972,4.99950605 257.769972,7.72102877 L257.769972,10.811912 Z M269.061904,16.1297767 C269.997649,16.1297767 271.068608,16.0061414 271.789238,15.5131455 C273.01385,14.6677889 273.384153,13.555071 273.384153,12.5242614 C273.384153,11.0190012 272.665059,9.80273866 270.581529,8.2974785 L270.09445,7.94666325 C268.399661,6.73040068 267.872633,6.09058784 267.872633,4.97786987 C267.872633,3.73997111 268.905178,3.08006753 270.152838,3.08006753 C271.692437,3.08006753 272.256343,3.73997111 272.373119,3.94706029 C272.46992,4.13251329 272.606671,4.60696387 272.625109,4.81250761 C272.645084,4.95777912 272.665059,5.03968753 272.780298,5.03968753 C272.897074,5.03968753 272.917049,4.9160522 272.917049,4.64714535 C272.917049,3.45251897 272.995412,2.87606924 272.995412,2.79416083 C272.995412,2.69216168 272.955462,2.6705255 272.820248,2.6705255 C272.683497,2.6705255 272.548283,2.6705255 272.217929,2.58861709 C271.809213,2.4850725 271.126996,2.38307335 270.444778,2.38307335 C268.184548,2.38307335 266.649558,3.61633578 266.649558,5.67795493 C266.649558,6.89576294 267.251876,7.96675399 269.100317,9.43183267 L269.879336,10.0500093 C271.398961,11.2461811 272.042765,11.8442671 272.042765,13.1022566 C272.042765,14.4205183 271.165409,15.4312371 269.47062,15.4312371 C268.321298,15.4312371 267.036762,14.9784227 266.763261,13.698797 C266.704873,13.4515264 266.704873,13.2042557 266.704873,13.0605296 C266.704873,12.9152581 266.646485,12.8534405 266.549684,12.8534405 C266.452882,12.8534405 266.414469,12.956985 266.414469,13.142438 C266.396031,13.4314356 266.317668,14.1330661 266.317668,14.9985134 C266.317668,15.472964 266.337643,15.5347817 266.569658,15.6568716 C267.270314,16.0061414 268.26291,16.1297767 269.061904,16.1297767 L269.061904,16.1297767 Z" id="Fill-4" fill="#00659F" mask="url(#mask-4)"></path>
                                    </g>
                                </g>
                            </g>
                        </g>
                        <rect id="Rectangle-5" stroke="#00659E" stroke-width="1.458" x="0.729" y="0.729" width="176.542" height="42.7152283"></rect>
                        <rect id="Rectangle-6" fill="#FFFFFF" x="44.6082725" y="36.3779528" width="87.4841849" height="18.6220472"></rect>
                        <g id="Page-1" transform="translate(48.506083, 34.212598)">
                            <mask id="mask-6" fill="white">
                                <use xlink:href="#path-5"></use>
                            </mask>
                            <g id="Mask"></g>
                            <g mask="url(#mask-6)" id="Group-6">
                                <g transform="translate(-106.729868, 4.268841)">
                                    <g transform="translate(0.000000, 0.131302)">
                                        <mask id="mask-8" fill="white">
                                            <use xlink:href="#path-7"></use>
                                        </mask>
                                        <g id="Clip-5"></g>
                                        <path d="M5.8966788,10.8820131 C6.73353356,10.8820131 7.72723409,10.785418 8.2503973,10.564184 C8.48669784,10.4540863 8.51249484,10.4260426 8.59091773,10.1632623 C8.71990274,9.69171196 8.87674852,8.4868696 8.87674852,8.38923582 C8.87674852,8.27913816 8.85095151,8.18046572 8.78491119,8.18046572 C8.70752018,8.18046572 8.68172318,8.23759187 8.65592618,8.38923582 C8.61671473,8.63851355 8.4474864,9.24924399 8.17197441,9.55357055 C7.6488112,10.121716 6.87799677,10.2463549 5.8966788,10.2463549 C3.09821999,10.2463549 1.17479549,7.82109033 1.17479549,5.17459177 C1.17479549,3.76097932 1.39768159,2.52809322 2.35217068,1.55798739 C2.81032544,1.08643701 3.62138319,0.546335268 5.36010115,0.546335268 C6.51167934,0.546335268 7.51879431,0.920251862 7.97591719,1.3367534 C8.31643763,1.64107996 8.52590928,2.20922545 8.52590928,2.7493272 C8.52590928,2.9435561 8.53829185,3.04118987 8.62909729,3.04118987 C8.70752018,3.04118987 8.73331718,2.9580973 8.74673163,2.7493272 C8.75911419,2.54159576 8.75911419,1.78026003 8.78491119,1.3222122 C8.81174007,0.823656742 8.85095151,0.657471589 8.85095151,0.546335268 C8.85095151,0.463242692 8.82412263,0.40819386 8.68172318,0.394691316 C8.26381174,0.366647572 7.8459003,0.284593653 7.3485341,0.187998533 C6.70773656,0.063359668 5.97510169,0.0218133798 5.45193848,0.0218133798 C3.43770854,0.0218133798 2.24795079,0.670974133 1.46269003,1.50293855 C0.300793048,2.73582466 -0.000515940047,4.35716855 -0.000515940047,5.28572809 C-0.000515940047,6.60170677 0.313175609,8.18150438 1.58032437,9.3873854 C2.61426822,10.3709938 3.93507474,10.8820131 5.8966788,10.8820131 L5.8966788,10.8820131 Z M10.7609616,9.38634674 C10.5391073,9.98253597 10.3162212,10.3990375 9.79408992,10.4675889 C9.70225259,10.4821301 9.53199238,10.4956326 9.45356949,10.4956326 C9.40094361,10.4956326 9.3493496,10.5371789 9.3493496,10.5922278 C9.3493496,10.6607791 9.42777249,10.6877842 9.57120382,10.6877842 C10.0417411,10.6877842 10.6175302,10.6483152 10.7351646,10.6483152 C10.8651815,10.6483152 11.4935964,10.6877842 11.7680765,10.6877842 C11.8722964,10.6877842 11.9373049,10.6607791 11.9373049,10.5922278 C11.9373049,10.5371789 11.9115079,10.4956326 11.8196705,10.4956326 L11.7154507,10.4956326 C11.5193934,10.4956326 11.3233362,10.4125401 11.3233362,10.1767649 C11.3233362,9.96903343 11.3883447,9.67820941 11.4935964,9.38634674 L12.1467765,7.50118391 C12.1725735,7.43263254 12.211785,7.40458879 12.2644109,7.40458879 L14.9184065,7.40458879 C14.9834149,7.40458879 14.9968294,7.41809134 15.0226264,7.47417882 L16.0555383,10.1767649 C16.1339612,10.3709938 16.0163269,10.4675889 15.9513184,10.4956326 C15.8986926,10.5236764 15.8728956,10.5236764 15.8728956,10.5787252 C15.8728956,10.6472766 16.0555383,10.6472766 16.2784244,10.6607791 C17.0760678,10.6877842 17.9253051,10.6877842 18.0955653,10.6877842 C18.2255822,10.6877842 18.3566309,10.6607791 18.3566309,10.5922278 C18.3566309,10.5236764 18.2782081,10.4956326 18.2131996,10.4956326 C18.0955653,10.4956326 17.9253051,10.4821301 17.7550449,10.4260426 C17.5073936,10.34295 17.1937021,10.1913061 16.7747588,9.13706901 C16.0689528,7.34953996 14.2260149,2.48758558 14.0165433,1.98903013 C13.8989089,1.72624985 13.8596975,1.5600647 13.7420632,1.5600647 C13.6636403,1.5600647 13.6110144,1.62861608 13.4675831,2.01707387 L10.7609616,9.38634674 Z M12.4212566,6.92161319 C12.3820452,6.92161319 12.3696626,6.89356945 12.3820452,6.83852062 L13.4541686,3.61037402 C13.5191771,3.42964767 13.5852174,3.42964767 13.6502258,3.61037402 L14.7873577,6.83852062 C14.8007721,6.89356945 14.8007721,6.92161319 14.7481463,6.92161319 L12.4212566,6.92161319 Z M20.9198211,5.18809432 C20.9198211,3.35901898 20.9198211,3.02664867 20.9322037,2.65273208 C20.9590325,2.2372692 21.024041,2.05654284 21.3645614,1.98695281 C21.4945783,1.97345027 21.6648385,1.95994772 21.7432614,1.95994772 C21.7824729,1.95994772 21.8350987,1.91840144 21.8350987,1.87685515 C21.8350987,1.80830377 21.7690584,1.78129868 21.6514241,1.78129868 C21.2985211,1.78129868 20.4369012,1.80726512 20.3842753,1.80726512 C20.3192669,1.80726512 19.6010783,1.78129868 19.0779151,1.78129868 C18.9468664,1.78129868 18.8942405,1.80830377 18.8942405,1.87685515 C18.8942405,1.91840144 18.9468664,1.97345027 18.9860778,1.97345027 C19.0902977,1.97345027 19.2863549,1.98695281 19.3781922,2.00149401 C19.7579241,2.05654284 19.8229326,2.25077174 19.8487296,2.65273208 C19.8755584,3.02664867 19.8755584,3.35901898 19.8755584,5.18809432 L19.8755584,7.26748604 C19.8755584,8.40377702 19.8755584,9.33233656 19.8095181,9.81635082 C19.7579241,10.1632623 19.7310952,10.3844963 19.509241,10.4405838 C19.4039892,10.4686275 19.2605579,10.4956326 19.156338,10.4956326 C19.0902977,10.4956326 19.0645007,10.5506815 19.0645007,10.5922278 C19.0645007,10.6607791 19.1295091,10.6877842 19.2471435,10.6877842 C19.4308181,10.6877842 19.6795012,10.6742817 19.9147699,10.6607791 C20.1366241,10.6462379 20.3316495,10.6462379 20.3842753,10.6462379 C20.7237639,10.6462379 21.1158783,10.6607791 21.6390415,10.6742817 C22.1745873,10.7023254 22.8153848,10.715828 23.639857,10.715828 C24.2538257,10.715828 24.2930371,10.6742817 24.37146,10.3979989 C24.4632974,10.052126 24.5417202,9.34583911 24.5417202,9.22120024 C24.5417202,9.09656138 24.5159232,9.04047389 24.4632974,9.04047389 C24.3982889,9.04047389 24.3590775,9.11006392 24.345663,9.1931565 C24.3064516,9.42893168 24.2146142,9.67820941 24.0711829,9.85893577 C23.7967028,10.2048086 23.2859222,10.2183112 22.6853679,10.2183112 C21.7824729,10.2183112 21.3377325,10.1352186 21.1550898,9.94202834 C20.9456181,9.73325825 20.9198211,9.02697135 20.9198211,7.29449113 L20.9198211,5.18809432 Z M26.686999,3.22087757 C26.5177706,2.7493272 26.3733074,2.38891315 26.3733074,2.2372692 C26.3733074,2.15417662 26.3867218,2.08458659 26.5043562,2.0284991 C26.6085761,1.98695281 26.7922507,1.97345027 26.9222676,1.97345027 C27.0006905,1.97345027 27.0399019,1.91840144 27.0399019,1.8633526 C27.0399019,1.80830377 26.9356821,1.78129868 26.7262104,1.78129868 C26.282502,1.78129868 25.7717213,1.80726512 25.654087,1.80726512 C25.5106556,1.80726512 24.8574755,1.78129868 24.3074835,1.78129868 C24.1248407,1.78129868 24.0072063,1.79480123 24.0072063,1.8633526 C24.0072063,1.90489889 24.0330034,1.97345027 24.0990437,1.97345027 C24.1640521,1.97345027 24.3601093,1.97345027 24.5427521,2.01499656 C24.922484,2.11159168 25.0793298,2.2372692 25.3403954,2.90200981 L28.1646513,10.1196387 C28.3865055,10.6877842 28.4649284,10.8404668 28.5959771,10.8404668 C28.7136115,10.8404668 28.7786199,10.6607791 29.0923115,9.95345357 C29.354409,9.37180554 29.8641578,8.09737315 30.5699638,6.37943413 C31.1581354,4.93881659 31.7205101,3.52520413 31.8515588,3.19283383 C32.1518359,2.38891315 32.3355106,2.222728 32.4923564,2.11159168 C32.7007961,1.97345027 32.9628937,1.97345027 33.0413166,1.97345027 C33.132122,1.97345027 33.1713335,1.91840144 33.1713335,1.8633526 C33.1713335,1.80830377 33.106325,1.78129868 32.9886907,1.78129868 C32.6492021,1.78129868 32.1518359,1.80726512 32.0868275,1.80726512 C31.9423643,1.80726512 31.420233,1.78129868 30.9620782,1.78129868 C30.7794354,1.78129868 30.7010125,1.80830377 30.7010125,1.8778938 C30.7010125,1.93190398 30.766021,1.97345027 30.8320613,1.97345027 C30.9620782,1.97345027 31.093127,1.97345027 31.2241757,2.01499656 C31.3418101,2.05654284 31.3810215,2.16767917 31.3810215,2.26427429 C31.3810215,2.36190806 31.3283956,2.52809322 31.2757697,2.70778091 C31.0281185,3.55324788 29.5246692,7.57077394 28.8570428,9.15057155 L26.686999,3.22087757 Z M35.9181983,5.18809432 C35.9181983,3.35901898 35.9181983,3.02664867 35.9305808,2.65273208 C35.9574097,2.2372692 36.0224182,2.07108405 36.3361097,2.00149401 C36.4671585,1.97345027 36.5455814,1.97345027 36.6240043,1.97345027 C36.6632157,1.97345027 36.7158416,1.91840144 36.7158416,1.8778938 C36.7158416,1.80830377 36.6632157,1.78129868 36.5321669,1.78129868 C36.1792639,1.78129868 35.4342465,1.80726512 35.3826525,1.80726512 C35.3176441,1.80726512 34.5984236,1.78129868 34.2197236,1.78129868 C34.0886749,1.78129868 34.036049,1.80830377 34.036049,1.8778938 C34.036049,1.91840144 34.0752604,1.97345027 34.1278863,1.97345027 C34.2063092,1.97345027 34.3507724,1.98695281 34.4807893,2.01499656 C34.7294724,2.07108405 34.8213097,2.25077174 34.8471067,2.65273208 C34.8729037,3.02664867 34.8729037,3.35901898 34.8729037,5.18809432 L34.8729037,7.26748604 C34.8729037,8.40377702 34.8605212,9.33129791 34.8078953,9.81635082 C34.7686839,10.1632623 34.7294724,10.3844963 34.5076182,10.4405838 C34.4023664,10.4686275 34.2589351,10.4956326 34.1536833,10.4956326 C34.0886749,10.4956326 34.0628779,10.5506815 34.0628779,10.5922278 C34.0628779,10.6607791 34.1278863,10.6877842 34.2455207,10.6877842 C34.5984236,10.6877842 35.3176441,10.6483152 35.3826525,10.6483152 C35.4342465,10.6483152 36.1792639,10.6877842 36.8200615,10.6877842 C36.9511103,10.6877842 37.0027043,10.6472766 37.0027043,10.5922278 C37.0027043,10.5506815 36.9769073,10.4956326 36.9118988,10.4956326 C36.806647,10.4956326 36.5579639,10.4686275 36.3887356,10.4405838 C36.0482152,10.3844963 36.0090037,10.1632623 35.9697923,9.81635082 C35.9181983,9.33129791 35.9181983,8.40377702 35.9181983,7.26748604 L35.9181983,5.18809432 Z M40.0498462,3.52520413 C40.4027492,3.94170567 41.6967268,5.38232321 43.028884,6.8655257 C44.2444388,8.20954813 45.9047338,9.94202834 46.0223682,10.052126 C46.6641976,10.6753203 46.7818319,10.7708768 46.8994663,10.7708768 C46.978921,10.7708768 46.9923355,10.7023254 46.9923355,9.92748714 L47.0181325,3.02664867 C47.0181325,2.32036177 47.0439295,2.08458659 47.4236613,2.00149401 C47.5536782,1.97345027 47.6455156,1.97345027 47.6981415,1.97345027 C47.7765643,1.97345027 47.8291902,1.90489889 47.8291902,1.8633526 C47.8291902,1.79480123 47.7373529,1.78129868 47.6197186,1.78129868 C47.1491812,1.78129868 46.7684175,1.80726512 46.6373687,1.80726512 C46.5063199,1.80726512 45.9563278,1.78129868 45.4341965,1.78129868 C45.3031477,1.78129868 45.2113104,1.79480123 45.2113104,1.8633526 C45.2113104,1.90489889 45.2247249,1.97345027 45.3031477,1.97345027 C45.3949851,1.97345027 45.6560507,1.98695281 45.8655224,2.02953776 C46.2184254,2.09808913 46.2834338,2.36190806 46.2968483,3.12324379 L46.4144826,9.02697135 C46.0615796,8.63851355 44.8326104,7.2394423 43.6954786,5.99201499 C41.918581,4.05388065 40.2459034,2.16975648 40.0632606,1.97552758 C39.9456263,1.85088872 39.7495691,1.61511353 39.6195522,1.61511353 C39.5277149,1.61511353 39.4627064,1.7397524 39.4627064,2.21130277 L39.4627064,8.95841997 C39.4627064,10.0251209 39.423495,10.34295 39.1356004,10.4260426 C38.9663721,10.4821301 38.7569004,10.4956326 38.6650631,10.4956326 C38.6134691,10.4956326 38.5742577,10.5371789 38.5742577,10.5922278 C38.5742577,10.6742817 38.6392661,10.6877842 38.7569004,10.6877842 C39.2800636,10.6877842 39.7629835,10.6483152 39.8672034,10.6483152 C39.9714233,10.6483152 40.4285462,10.6877842 41.0817263,10.6877842 C41.2127751,10.6877842 41.2911979,10.6607791 41.2911979,10.5922278 C41.2911979,10.5371789 41.2519865,10.4956326 41.1993606,10.4956326 C41.0951407,10.4956326 40.8340751,10.4821301 40.6246034,10.4260426 C40.3109119,10.34295 40.206692,10.052126 40.180895,9.08305884 L40.0498462,3.52520413 Z M55.1410926,6.67129681 C55.1410926,8.00181668 55.1410926,9.09656138 55.0750522,9.67820941 C55.0234582,10.0801698 54.9574179,10.3844963 54.6963523,10.4405838 C54.5787179,10.4686275 54.4218721,10.4956326 54.3042378,10.4956326 C54.2258149,10.4956326 54.198986,10.5371789 54.198986,10.5787252 C54.198986,10.6607791 54.2650264,10.6877842 54.4084577,10.6877842 C54.6045149,10.6877842 54.9058239,10.6607791 55.1668896,10.6607791 C55.4413697,10.6462379 55.6632239,10.6462379 55.6890209,10.6462379 C55.7540294,10.6462379 56.1987697,10.6877842 56.7735269,10.7293305 C57.3359015,10.7708768 58.029325,10.8124231 58.5916996,10.8124231 C60.8154012,10.8124231 61.9927764,9.84439457 62.5551511,9.22120024 C63.286754,8.40377702 63.9657311,7.0597546 63.9657311,5.31377184 C63.9657311,3.6643842 63.3517625,2.51459067 62.6985824,1.79376257 C61.1425072,0.0914034125 58.7485454,0.216042277 57.4535359,0.216042277 C56.669307,0.216042277 55.8458667,0.255511251 55.6890209,0.255511251 C55.6240125,0.255511251 54.8005721,0.216042277 54.2124005,0.216042277 C54.0689692,0.216042277 54.0029288,0.243047364 54.0029288,0.325101284 C54.0029288,0.380150115 54.0555547,0.40819386 54.1081806,0.40819386 C54.2258149,0.40819386 54.4476692,0.421696404 54.5529209,0.449740148 C54.9842468,0.546335268 55.0884667,0.76860791 55.1142637,1.23911962 C55.1410926,1.68262625 55.1410926,2.07108405 55.1410926,4.23252969 L55.1410926,6.67129681 Z M56.2379811,4.0112957 C56.2379811,2.9435561 56.2379811,1.52994364 56.2503637,1.05943193 C56.2503637,0.906749318 56.2895751,0.837159286 56.4072095,0.782110454 C56.5124612,0.727061622 56.996413,0.685515334 57.2574786,0.685515334 C58.8145857,0.685515334 60.3056525,0.878705574 61.5346216,2.25077174 C62.0711993,2.84696098 62.7904197,3.98325196 62.7904197,5.74273726 C62.7904197,7.01820831 62.4241023,8.34768953 61.7440933,9.05501509 C60.972247,9.87243831 59.8474977,10.34295 58.6309111,10.34295 C57.0882503,10.34295 56.5774697,10.052126 56.4072095,9.78934573 C56.3029896,9.63666313 56.2771926,9.08202018 56.2637781,8.73614733 C56.2503637,8.4723284 56.2379811,7.19789601 56.2379811,5.72923472 L56.2379811,4.0112957 Z M66.2420586,7.26644738 C66.2420586,8.40273837 66.2420586,9.33129791 66.1770502,9.81635082 C66.1244243,10.1632623 66.0986273,10.3990375 65.8757412,10.4405838 C65.7715213,10.4540863 65.62809,10.4956326 65.5228382,10.4956326 C65.4578298,10.4956326 65.4310009,10.5506815 65.4310009,10.5922278 C65.4310009,10.6607791 65.4970412,10.6877842 65.6146755,10.6877842 C65.7973183,10.6877842 66.0594159,10.6742817 66.2812701,10.6607791 C66.5289213,10.6462379 66.7518074,10.6462379 66.7776044,10.6462379 C66.9468327,10.6462379 67.2471098,10.6462379 67.7310616,10.6742817 C68.2026308,10.6877842 68.8702572,10.715828 69.7339409,10.715828 C70.1766174,10.715828 70.2942518,10.715828 70.3726747,10.4125401 C70.4376831,10.1632623 70.5295204,9.35934165 70.5295204,9.27624908 C70.5295204,9.1931565 70.516106,9.09552272 70.4510975,9.09552272 C70.3860891,9.09552272 70.3592602,9.13810767 70.3334632,9.27624908 C70.2684548,9.74779945 70.1105771,9.95553089 69.8113319,10.0936723 C69.5110548,10.2183112 68.9610627,10.2183112 68.6607856,10.2183112 C67.5226218,10.2183112 67.3131502,10.0666672 67.2863213,9.27624908 C67.2739387,9.04047389 67.2863213,7.66840772 67.2863213,7.26644738 L67.2863213,6.28283901 C67.2863213,6.24129272 67.2997357,6.19870778 67.3647442,6.19870778 C67.5618333,6.19870778 68.7918344,6.21324898 69.1055259,6.25479527 C69.5502662,6.3098441 69.6544861,6.44902416 69.6947294,6.61520932 C69.7463234,6.76789193 69.7463234,6.89253079 69.7463234,7.00262845 C69.7463234,7.07221849 69.7721204,7.11376477 69.8247463,7.11376477 C69.9021373,7.11376477 69.9279343,6.98912591 69.9279343,6.89253079 C69.9279343,6.80943821 69.9537313,6.36593159 69.9805602,6.1301564 C70.0063572,5.74377592 70.0713657,5.54954702 70.0713657,5.47995699 C70.0713657,5.41140562 70.0455687,5.38336187 70.0063572,5.38336187 C69.9671458,5.38336187 69.9145199,5.4529519 69.8371289,5.53604448 C69.7205264,5.66068335 69.5502662,5.67418589 69.2757861,5.70222963 C69.0136886,5.73027338 67.495793,5.73027338 67.3523616,5.73027338 C67.2863213,5.73027338 67.2863213,5.68872709 67.2863213,5.60459586 L67.2863213,2.40345435 C67.2863213,2.32036177 67.2997357,2.27881549 67.3523616,2.27881549 C67.4834104,2.27881549 68.8176314,2.29231803 69.0136886,2.32036177 C69.6421035,2.40345435 69.7597379,2.48654693 69.8371289,2.68077582 C69.8887229,2.81891723 69.9021373,3.01314613 69.9021373,3.09623871 C69.9021373,3.19283383 69.9279343,3.24892132 69.9929428,3.24892132 C70.0455687,3.24892132 70.0847801,3.17933128 70.0981946,3.12428245 C70.1239916,2.98614104 70.1497886,2.4605805 70.163203,2.34944418 C70.189,2.01707387 70.2550403,1.8778938 70.2550403,1.79480123 C70.2550403,1.7397524 70.2416259,1.68470356 70.2024144,1.68470356 C70.1497886,1.68470356 70.0981946,1.72624985 70.0455687,1.7397524 C69.9537313,1.75325494 69.7463234,1.79480123 69.5244692,1.80934243 C69.2623717,1.82284497 66.8560273,1.80934243 66.7776044,1.80934243 C66.712596,1.80934243 65.9675785,1.78129868 65.4444153,1.78129868 C65.3133666,1.78129868 65.2617725,1.80934243 65.2617725,1.8778938 C65.2617725,1.91944009 65.3133666,1.97448892 65.352578,1.97448892 C65.4578298,1.97345027 65.653887,1.98695281 65.7457243,2.00149401 C66.1244243,2.05654284 66.1894328,2.25077174 66.2162616,2.65273208 C66.2420586,3.02664867 66.2420586,3.36005764 66.2420586,5.18913297 L66.2420586,7.26644738 Z M73.7985166,3.52520413 C74.1514196,3.94170567 75.4453972,5.38232321 76.7775544,6.8655257 C77.9931092,8.20954813 79.6534042,9.94202834 79.7710386,10.052126 C80.4118361,10.6753203 80.5305023,10.7708768 80.6481366,10.7708768 C80.7275914,10.7708768 80.739974,10.7023254 80.739974,9.92748714 L80.7668029,3.02664867 C80.7668029,2.32036177 80.7925999,2.08458659 81.1723317,2.00149401 C81.3023486,1.97345027 81.394186,1.97345027 81.4468118,1.97345027 C81.5252347,1.97345027 81.5768287,1.90489889 81.5768287,1.8633526 C81.5768287,1.79480123 81.4860233,1.78129868 81.3683889,1.78129868 C80.8978516,1.78129868 80.5170879,1.80726512 80.3860391,1.80726512 C80.2549903,1.80726512 79.7049982,1.78129868 79.1828669,1.78129868 C79.0518181,1.78129868 78.9599808,1.79480123 78.9599808,1.8633526 C78.9599808,1.90489889 78.9733952,1.97345027 79.0518181,1.97345027 C79.1436555,1.97345027 79.4047211,1.98695281 79.6141928,2.02953776 C79.9660639,2.09808913 80.0321042,2.36190806 80.0444868,3.12324379 L80.163153,9.02697135 C79.81025,8.63851355 78.5812808,7.2394423 77.4441489,5.99201499 C75.6672514,4.05388065 73.9945738,2.16975648 73.811931,1.97552758 C73.6942967,1.85088872 73.4982395,1.61511353 73.3682226,1.61511353 C73.2763852,1.61511353 73.2113768,1.7397524 73.2113768,2.21130277 L73.2113768,8.95841997 C73.2113768,10.0251209 73.1721654,10.34295 72.8842708,10.4260426 C72.7150425,10.4821301 72.5055708,10.4956326 72.4137335,10.4956326 C72.3621395,10.4956326 72.322928,10.5371789 72.322928,10.5922278 C72.322928,10.6742817 72.3879365,10.6877842 72.5055708,10.6877842 C73.028734,10.6877842 73.5116539,10.6483152 73.6158738,10.6483152 C73.7200937,10.6483152 74.1772166,10.6877842 74.8303967,10.6877842 C74.9614454,10.6877842 75.0398683,10.6607791 75.0398683,10.5922278 C75.0398683,10.5371789 75.0006569,10.4956326 74.948031,10.4956326 C74.8438111,10.4956326 74.5827454,10.4821301 74.3732738,10.4260426 C74.0595822,10.34295 73.9553623,10.052126 73.9295653,9.08305884 L73.7985166,3.52520413 Z M86.8476723,2.32036177 L88.2840493,2.34736686 C89.3819698,2.37541061 89.629621,2.63819088 89.6688324,2.99860493 L89.6822469,3.12324379 C89.6946294,3.28942895 89.7214583,3.33097523 89.7740842,3.33097523 C89.8267101,3.33097523 89.8803679,3.2759264 89.8803679,3.17933128 C89.8803679,3.04222853 89.9195793,2.19676157 89.9195793,1.83634752 C89.9195793,1.76779614 89.9195793,1.69820611 89.8669534,1.69820611 C89.8143275,1.69820611 89.7080439,1.72624985 89.5377837,1.75325494 C89.3551409,1.78129868 89.0940752,1.80934243 88.7153752,1.80934243 L84.3783832,1.80934243 C84.2473344,1.80934243 83.8025941,1.79480123 83.47652,1.75325494 C83.1617966,1.71170865 83.0441622,1.61511353 82.9657393,1.61511353 C82.9265279,1.61511353 82.8615194,1.76779614 82.848105,1.83634752 C82.822308,1.93294264 82.6004538,2.98510239 82.6004538,3.10974125 C82.6004538,3.17933128 82.6520478,3.20633637 82.6788767,3.20633637 C82.7304707,3.20633637 82.7696821,3.19283383 82.796511,3.09623871 C82.8357224,3.01314613 82.848105,2.93005355 82.9791538,2.72128346 C83.149414,2.44500064 83.4238941,2.36190806 84.1431145,2.34736686 L85.8034096,2.32036177 L85.8034096,7.26748604 C85.8034096,8.40377702 85.8034096,9.33129791 85.7507837,9.81635082 C85.7115723,10.1632623 85.6465638,10.3990375 85.4112952,10.4540863 C85.3070753,10.4821301 85.1760265,10.5101738 85.0718066,10.5101738 C85.0057663,10.5101738 84.9799693,10.5506815 84.9799693,10.5922278 C84.9799693,10.6607791 85.0325952,10.6877842 85.1626121,10.6877842 C85.5031325,10.6877842 86.2997439,10.6483152 86.3523698,10.6483152 C86.4173783,10.6483152 87.1479494,10.6877842 87.7753325,10.6877842 C87.9053494,10.6877842 87.9579752,10.6472766 87.9579752,10.5922278 C87.9579752,10.5506815 87.9445608,10.4956326 87.8661379,10.4956326 C87.761918,10.4956326 87.5008524,10.4686275 87.3440066,10.4405838 C86.9921355,10.3844963 86.9395096,10.1632623 86.9002981,9.81635082 C86.8476723,9.33129791 86.8476723,8.40377702 86.8476723,7.26748604 L86.8476723,2.32036177 Z M90.8245381,9.38634674 C90.6026839,9.98253597 90.3797978,10.3990375 89.8566346,10.4675889 C89.7658292,10.4821301 89.5955689,10.4956326 89.5171461,10.4956326 C89.4645202,10.4956326 89.4129262,10.5371789 89.4129262,10.5922278 C89.4129262,10.6607791 89.4913491,10.6877842 89.6347804,10.6877842 C90.1053177,10.6877842 90.6811068,10.6483152 90.7987411,10.6483152 C90.928758,10.6483152 91.5561411,10.6877842 91.8316531,10.6877842 C91.935873,10.6877842 92.0008814,10.6607791 92.0008814,10.5922278 C92.0008814,10.5371789 91.9750844,10.4956326 91.8832471,10.4956326 L91.7790272,10.4956326 C91.58297,10.4956326 91.3869128,10.4125401 91.3869128,10.1767649 C91.3869128,9.96903343 91.4519212,9.67820941 91.5561411,9.38634674 L92.2103531,7.50118391 C92.2361501,7.43263254 92.2753616,7.40458879 92.3279874,7.40458879 L94.981983,7.40458879 C95.0469915,7.40458879 95.0604059,7.41809134 95.0862029,7.47417882 L96.1191149,10.1767649 C96.1975378,10.3709938 96.0799035,10.4675889 96.014895,10.4956326 C95.9622691,10.5236764 95.9364721,10.5236764 95.9364721,10.5787252 C95.9364721,10.6472766 96.1191149,10.6472766 96.342001,10.6607791 C97.1386124,10.6877842 97.9888816,10.6877842 98.1591419,10.6877842 C98.2891587,10.6877842 98.4202075,10.6607791 98.4202075,10.5922278 C98.4202075,10.5236764 98.3417846,10.4956326 98.2767762,10.4956326 C98.1591419,10.4956326 97.9888816,10.4821301 97.8186214,10.4260426 C97.5699383,10.34295 97.2562468,10.1913061 96.8383353,9.13706901 C96.1325293,7.34953996 94.2885596,2.48758558 94.0801198,1.98903013 C93.9624855,1.72624985 93.9232741,1.5600647 93.8056397,1.5600647 C93.7272168,1.5600647 93.674591,1.62861608 93.5311596,2.01707387 L90.8245381,9.38634674 Z M92.4848332,6.92161319 C92.4456218,6.92161319 92.4322073,6.89356945 92.4456218,6.83852062 L93.5177452,3.61037402 C93.5827536,3.42964767 93.648794,3.42964767 93.7138024,3.61037402 L94.8509343,6.83852062 C94.8643487,6.89356945 94.8643487,6.92161319 94.8117228,6.92161319 L92.4848332,6.92161319 Z M100.983398,5.18809432 C100.983398,3.35901898 100.983398,3.02664867 100.99578,2.65273208 C101.022609,2.2372692 101.087618,2.05654284 101.427106,1.98695281 C101.558155,1.97345027 101.728415,1.95994772 101.806838,1.95994772 C101.846049,1.95994772 101.898675,1.91840144 101.898675,1.87685515 C101.898675,1.80830377 101.832635,1.78129868 101.715001,1.78129868 C101.362098,1.78129868 100.499446,1.80726512 100.447852,1.80726512 C100.382843,1.80726512 99.663623,1.78129868 99.1404598,1.78129868 C99.0104429,1.78129868 98.957817,1.80830377 98.957817,1.87685515 C98.957817,1.91840144 99.0104429,1.97345027 99.0496544,1.97345027 C99.1538743,1.97345027 99.3499315,1.98695281 99.4417688,2.00149401 C99.8204688,2.05654284 99.8865091,2.25077174 99.9123061,2.65273208 C99.9381031,3.02664867 99.9381031,3.35901898 99.9381031,5.18809432 L99.9381031,7.26748604 C99.9381031,8.40377702 99.9381031,9.33233656 99.8730947,9.81635082 C99.8204688,10.1632623 99.7946718,10.3844963 99.5728176,10.4405838 C99.4675658,10.4686275 99.3241345,10.4956326 99.2188827,10.4956326 C99.1538743,10.4956326 99.1280773,10.5506815 99.1280773,10.5922278 C99.1280773,10.6607791 99.1930857,10.6877842 99.31072,10.6877842 C99.4943947,10.6877842 99.7420459,10.6742817 99.9773146,10.6607791 C100.199169,10.6462379 100.395226,10.6462379 100.447852,10.6462379 C100.78734,10.6462379 101.179455,10.6607791 101.702618,10.6742817 C102.238164,10.7023254 102.878961,10.715828 103.702402,10.715828 C104.317402,10.715828 104.356614,10.6742817 104.435037,10.3979989 C104.526874,10.052126 104.605297,9.34583911 104.605297,9.22120024 C104.605297,9.09656138 104.578468,9.04047389 104.526874,9.04047389 C104.460834,9.04047389 104.421622,9.11006392 104.40924,9.1931565 C104.370028,9.42893168 104.278191,9.67820941 104.134759,9.85893577 C103.859247,10.2048086 103.349499,10.2183112 102.747913,10.2183112 C101.846049,10.2183112 101.401309,10.1352186 101.218666,9.94202834 C101.009195,9.73325825 100.983398,9.02697135 100.983398,7.29449113 L100.983398,5.18809432 Z M110.399304,9.16511275 C110.163003,9.85789711 109.901937,10.3844963 109.300351,10.4675889 C109.196131,10.4821301 109.013489,10.4956326 108.921651,10.4956326 C108.856643,10.4956326 108.804017,10.5236764 108.804017,10.5787252 C108.804017,10.6607791 108.88244,10.6877842 109.0527,10.6877842 C109.666669,10.6877842 110.385889,10.6483152 110.52932,10.6483152 C110.673784,10.6483152 111.235126,10.6877842 111.548818,10.6877842 C111.667484,10.6877842 111.745907,10.6607791 111.745907,10.5787252 C111.745907,10.5236764 111.706696,10.4956326 111.614858,10.4956326 L111.48381,10.4956326 C111.261955,10.4956326 110.987475,10.3709938 110.987475,10.0936723 C110.987475,9.84439457 111.052484,9.51202426 111.170118,9.16511275 L111.954347,6.71180444 C111.981176,6.6422144 112.020387,6.60066812 112.085396,6.60066812 L114.896237,6.60066812 C114.961245,6.60066812 114.988074,6.62871186 115.013871,6.68376069 L116.229426,10.0936723 C116.307849,10.3159449 116.229426,10.4405838 116.151003,10.4675889 C116.099409,10.4821301 116.060198,10.5091352 116.060198,10.564184 C116.060198,10.6472766 116.203629,10.6472766 116.452312,10.6607791 C117.354175,10.6877842 118.308664,10.6877842 118.504722,10.6877842 C118.648153,10.6877842 118.765787,10.6607791 118.765787,10.5787252 C118.765787,10.5091352 118.714193,10.4956326 118.63577,10.4956326 C118.504722,10.4956326 118.308664,10.4821301 118.112607,10.4125401 C117.838127,10.3294475 117.458395,10.1082135 116.987858,8.87428874 C116.190215,6.76685327 114.137805,1.04696804 113.941748,0.520368838 C113.784902,0.0914034125 113.732276,0.0218133798 113.653853,0.0218133798 C113.57543,0.0218133798 113.523836,0.104905956 113.366991,0.561915126 L110.399304,9.16511275 Z M112.228827,6.10418997 C112.189616,6.10418997 112.163819,6.07614623 112.189616,6.00655619 L113.340162,2.2663516 C113.406202,2.05862016 113.471211,2.05862016 113.536219,2.2663516 L114.778603,6.00655619 C114.792017,6.06264368 114.792017,6.10418997 114.725977,6.10418997 L112.228827,6.10418997 Z M121.159749,10.8404668 C121.787132,10.8404668 122.507385,10.7573742 122.991336,10.4260426 C123.813745,9.85789711 124.061396,9.11006392 124.061396,8.41727957 C124.061396,7.40562745 123.578476,6.58820423 122.180279,5.57655211 L121.853173,5.34077693 C120.713977,4.52335371 120.361074,4.09334962 120.361074,3.34551644 C120.361074,2.51355201 121.054497,2.07004539 121.891352,2.07004539 C122.925296,2.07004539 123.305028,2.51355201 123.382419,2.65273208 C123.448459,2.77737094 123.539265,3.09623871 123.552679,3.23438011 C123.566094,3.33201389 123.578476,3.38706272 123.656899,3.38706272 C123.735322,3.38706272 123.748736,3.30397015 123.748736,3.12324379 C123.748736,2.32036177 123.80033,1.93294264 123.80033,1.8778938 C123.80033,1.80934243 123.774533,1.79480123 123.682696,1.79480123 C123.591891,1.79480123 123.500053,1.79480123 123.278199,1.7397524 C123.003719,1.67016236 122.545564,1.60161099 122.088441,1.60161099 C120.570546,1.60161099 119.538666,2.43045944 119.538666,3.81602815 C119.538666,4.63449003 119.943163,5.35427947 121.185546,6.3389265 L121.708709,6.75438938 C122.729239,7.55831006 123.160565,7.9602704 123.160565,8.80573736 C123.160565,9.69171196 122.572393,10.3709938 121.434229,10.3709938 C120.662383,10.3709938 119.798699,10.0666672 119.616057,9.20665904 C119.576845,9.04047389 119.576845,8.87428874 119.576845,8.77769362 C119.576845,8.68005984 119.537634,8.63851355 119.472625,8.63851355 C119.407617,8.63851355 119.38182,8.70810358 119.38182,8.83274245 C119.368405,9.02697135 119.316811,9.49852172 119.316811,10.0801698 C119.316811,10.3990375 119.329194,10.4405838 119.48604,10.5226377 C119.955545,10.7573742 120.623172,10.8404668 121.159749,10.8404668 L121.159749,10.8404668 Z M128.011433,10.8404668 C128.638816,10.8404668 129.358037,10.7573742 129.84302,10.4260426 C130.665429,9.85789711 130.91308,9.11006392 130.91308,8.41727957 C130.91308,7.40562745 130.43016,6.58820423 129.030931,5.57655211 L128.704856,5.34077693 C127.565661,4.52335371 127.212758,4.09334962 127.212758,3.34551644 C127.212758,2.51355201 127.906181,2.07004539 128.743036,2.07004539 C129.77698,2.07004539 130.15568,2.51355201 130.234103,2.65273208 C130.300143,2.77737094 130.390949,3.09623871 130.404363,3.23438011 C130.416746,3.33201389 130.43016,3.38706272 130.508583,3.38706272 C130.587006,3.38706272 130.60042,3.30397015 130.60042,3.12324379 C130.60042,2.32036177 130.652014,1.93294264 130.652014,1.8778938 C130.652014,1.80934243 130.626217,1.79480123 130.53438,1.79480123 C130.443574,1.79480123 130.351737,1.79480123 130.129883,1.7397524 C129.855403,1.67016236 129.397248,1.60161099 128.940125,1.60161099 C127.422229,1.60161099 126.390349,2.43045944 126.390349,3.81602815 C126.390349,4.63449003 126.794846,5.35427947 128.03723,6.3389265 L128.560393,6.75438938 C129.580923,7.55831006 130.012249,7.9602704 130.012249,8.80573736 C130.012249,9.69171196 129.424077,10.3709938 128.285913,10.3709938 C127.514067,10.3709938 126.650383,10.0666672 126.46774,9.20665904 C126.428529,9.04047389 126.428529,8.87428874 126.428529,8.77769362 C126.428529,8.68005984 126.389317,8.63851355 126.324309,8.63851355 C126.259301,8.63851355 126.233504,8.70810358 126.233504,8.83274245 C126.220089,9.02697135 126.168495,9.49852172 126.168495,10.0801698 C126.168495,10.3990375 126.180878,10.4405838 126.336692,10.5226377 C126.807229,10.7573742 127.474855,10.8404668 128.011433,10.8404668 L128.011433,10.8404668 Z M131.869633,6.21428764 C131.869633,8.33418699 133.214172,10.8404668 136.366566,10.8404668 C139.139228,10.8404668 140.981134,8.6665573 140.981134,6.03356128 C140.981134,3.2904676 139.021594,1.61511353 136.431575,1.61511353 C133.253384,1.61511353 131.869633,4.31562226 131.869633,6.21428764 L131.869633,6.21428764 Z M133.057327,5.89541987 C133.057327,3.33201389 134.444174,2.05654284 136.366566,2.05654284 C138.184739,2.05654284 139.805822,3.53974533 139.805822,6.36593159 C139.805822,9.77480453 137.726584,10.3574912 136.693672,10.3574912 C134.613402,10.3574912 133.057327,8.63851355 133.057327,5.89541987 L133.057327,5.89541987 Z M147.62541,10.8404668 C148.370427,10.8404668 149.234111,10.7708768 149.704648,10.5776866 C149.900705,10.4956326 149.926502,10.4540863 149.991511,10.2328524 C150.109145,9.83089202 150.264959,8.80573736 150.264959,8.72160613 C150.264959,8.63851355 150.213365,8.55438232 150.160739,8.55438232 C150.083348,8.55438232 150.069934,8.59696726 150.044137,8.72160613 C150.004925,8.94387877 149.84808,9.44243423 149.600428,9.70625316 C149.142274,10.1913061 148.566484,10.2598574 147.703833,10.2598574 C145.244862,10.2598574 143.557739,8.25109441 143.557739,5.99201499 C143.557739,4.80067518 143.740381,3.74747677 144.59065,2.91551235 C144.996179,2.51355201 145.701985,2.09808913 147.18067,2.09808913 C148.200167,2.09808913 149.038054,2.38891315 149.443583,2.7493272 C149.74386,2.99860493 149.926502,3.4701553 149.926502,3.92716447 C149.926502,4.09334962 149.939917,4.17748086 150.01834,4.17748086 C150.083348,4.17748086 150.134942,4.10789082 150.147325,3.92716447 C150.160739,3.76097932 150.160739,3.10974125 150.174154,2.72232211 C150.199951,2.29231803 150.225748,2.15417662 150.225748,2.05654284 C150.225748,1.98799147 150.199951,1.93294264 150.083348,1.93294264 C149.704648,1.91840144 149.338331,1.83634752 148.907005,1.75325494 C148.34463,1.65665982 147.690418,1.61511353 147.232264,1.61511353 C145.466717,1.61511353 144.42039,2.16767917 143.726967,2.87396606 C142.708501,3.92716447 142.434021,5.29923064 142.434021,6.08964877 C142.434021,7.21139855 142.708501,8.55542098 143.832219,9.58161429 C144.734082,10.4125401 145.899074,10.8404668 147.62541,10.8404668 L147.62541,10.8404668 Z M154.043704,5.18809432 C154.043704,3.35901898 154.043704,3.02664867 154.057118,2.65273208 C154.082915,2.2372692 154.148956,2.07108405 154.462647,2.00149401 C154.593696,1.97345027 154.672119,1.97345027 154.750542,1.97345027 C154.789753,1.97345027 154.841347,1.91840144 154.841347,1.8778938 C154.841347,1.80830377 154.789753,1.78129868 154.658705,1.78129868 C154.305802,1.78129868 153.560784,1.80726512 153.50919,1.80726512 C153.44315,1.80726512 152.724961,1.78129868 152.346261,1.78129868 C152.215213,1.78129868 152.162587,1.80830377 152.162587,1.8778938 C152.162587,1.91840144 152.201798,1.97345027 152.254424,1.97345027 C152.332847,1.97345027 152.476278,1.98695281 152.607327,2.01499656 C152.85601,2.07108405 152.947847,2.25077174 152.973644,2.65273208 C152.999441,3.02664867 152.999441,3.35901898 152.999441,5.18809432 L152.999441,7.26748604 C152.999441,8.40377702 152.987059,9.33129791 152.934433,9.81635082 C152.895221,10.1632623 152.85601,10.3844963 152.633124,10.4405838 C152.528904,10.4686275 152.385473,10.4956326 152.280221,10.4956326 C152.215213,10.4956326 152.189416,10.5506815 152.189416,10.5922278 C152.189416,10.6607791 152.254424,10.6877842 152.372058,10.6877842 C152.724961,10.6877842 153.44315,10.6483152 153.50919,10.6483152 C153.560784,10.6483152 154.305802,10.6877842 154.946599,10.6877842 C155.077648,10.6877842 155.129242,10.6472766 155.129242,10.5922278 C155.129242,10.5506815 155.103445,10.4956326 155.038436,10.4956326 C154.933185,10.4956326 154.684502,10.4686275 154.515273,10.4405838 C154.174753,10.3844963 154.135541,10.1632623 154.09633,9.81635082 C154.043704,9.33129791 154.043704,8.40377702 154.043704,7.26748604 L154.043704,5.18809432 Z M157.131089,9.38634674 C156.909235,9.98253597 156.687381,10.3990375 156.164218,10.4675889 C156.07238,10.4821301 155.90212,10.4956326 155.823697,10.4956326 C155.772103,10.4956326 155.719477,10.5371789 155.719477,10.5922278 C155.719477,10.6607791 155.7979,10.6877842 155.941332,10.6877842 C156.411869,10.6877842 156.987658,10.6483152 157.105292,10.6483152 C157.236341,10.6483152 157.863724,10.6877842 158.138204,10.6877842 C158.242424,10.6877842 158.308464,10.6607791 158.308464,10.5922278 C158.308464,10.5371789 158.281636,10.4956326 158.19083,10.4956326 L158.085578,10.4956326 C157.889521,10.4956326 157.693464,10.4125401 157.693464,10.1767649 C157.693464,9.96903343 157.758472,9.67820941 157.863724,9.38634674 L158.516904,7.50118391 C158.543733,7.43263254 158.582945,7.40458879 158.634539,7.40458879 L161.288534,7.40458879 C161.354575,7.40458879 161.366957,7.41809134 161.393786,7.47417882 L162.425666,10.1767649 C162.504089,10.3709938 162.386455,10.4675889 162.321446,10.4956326 C162.26882,10.5236764 162.243023,10.5236764 162.243023,10.5787252 C162.243023,10.6472766 162.425666,10.6472766 162.648552,10.6607791 C163.446195,10.6877842 164.295433,10.6877842 164.465693,10.6877842 C164.596742,10.6877842 164.726759,10.6607791 164.726759,10.5922278 C164.726759,10.5236764 164.648336,10.4956326 164.583327,10.4956326 C164.465693,10.4956326 164.295433,10.4821301 164.126204,10.4260426 C163.877521,10.34295 163.56383,10.1913061 163.144886,9.13706901 C162.43908,7.34953996 160.596143,2.48758558 160.386671,1.98903013 C160.269037,1.72624985 160.229825,1.5600647 160.112191,1.5600647 C160.033768,1.5600647 159.981142,1.62861608 159.837711,2.01707387 L157.131089,9.38634674 Z M158.791384,6.92161319 C158.752173,6.92161319 158.73979,6.89356945 158.752173,6.83852062 L159.824296,3.61037402 C159.890337,3.42964767 159.955345,3.42964767 160.020354,3.61037402 L161.158517,6.83852062 C161.1709,6.89356945 161.1709,6.92161319 161.118274,6.92161319 L158.791384,6.92161319 Z M167.642852,2.32036177 L169.079229,2.34736686 C170.176117,2.37541061 170.424801,2.63819088 170.464012,2.99860493 L170.476395,3.12324379 C170.489809,3.28942895 170.516638,3.33097523 170.569264,3.33097523 C170.62189,3.33097523 170.674516,3.2759264 170.674516,3.17933128 C170.674516,3.04222853 170.714759,2.19676157 170.714759,1.83634752 C170.714759,1.76779614 170.714759,1.69820611 170.662133,1.69820611 C170.608475,1.69820611 170.503223,1.72624985 170.332963,1.75325494 C170.15032,1.78129868 169.889255,1.80934243 169.510555,1.80934243 L165.173563,1.80934243 C165.042514,1.80934243 164.597774,1.79480123 164.270668,1.75325494 C163.956976,1.71170865 163.839342,1.61511353 163.760919,1.61511353 C163.721707,1.61511353 163.656699,1.76779614 163.643285,1.83634752 C163.617488,1.93294264 163.394601,2.98510239 163.394601,3.10974125 C163.394601,3.17933128 163.447227,3.20633637 163.473024,3.20633637 C163.52565,3.20633637 163.564862,3.19283383 163.590659,3.09623871 C163.62987,3.01314613 163.643285,2.93005355 163.774333,2.72128346 C163.944594,2.44500064 164.219074,2.36190806 164.938294,2.34736686 L166.598589,2.32036177 L166.598589,7.26748604 C166.598589,8.40377702 166.598589,9.33129791 166.545963,9.81635082 C166.506752,10.1632623 166.441743,10.3990375 166.206475,10.4540863 C166.101223,10.4821301 165.971206,10.5101738 165.865954,10.5101738 C165.800946,10.5101738 165.775149,10.5506815 165.775149,10.5922278 C165.775149,10.6607791 165.826743,10.6877842 165.957792,10.6877842 C166.29728,10.6877842 167.094923,10.6483152 167.146517,10.6483152 C167.212558,10.6483152 167.943129,10.6877842 168.570512,10.6877842 C168.700529,10.6877842 168.753155,10.6472766 168.753155,10.5922278 C168.753155,10.5506815 168.73974,10.4956326 168.661317,10.4956326 C168.557098,10.4956326 168.296032,10.4686275 168.139186,10.4405838 C167.786283,10.3844963 167.734689,10.1632623 167.695478,9.81635082 C167.642852,9.33129791 167.642852,8.40377702 167.642852,7.26748604 L167.642852,2.32036177 Z M173.109753,7.26644738 C173.109753,8.40273837 173.109753,9.33129791 173.044744,9.81635082 C172.992118,10.1632623 172.966321,10.3990375 172.744467,10.4405838 C172.639215,10.4540863 172.495784,10.4956326 172.390532,10.4956326 C172.325524,10.4956326 172.299727,10.5506815 172.299727,10.5922278 C172.299727,10.6607791 172.364735,10.6877842 172.482369,10.6877842 C172.666044,10.6877842 172.92711,10.6742817 173.148964,10.6607791 C173.397647,10.6462379 173.619501,10.6462379 173.645298,10.6462379 C173.815559,10.6462379 174.115836,10.6462379 174.599787,10.6742817 C175.070325,10.6877842 175.737951,10.715828 176.601635,10.715828 C177.044311,10.715828 177.161946,10.715828 177.240369,10.4125401 C177.305377,10.1632623 177.397214,9.35934165 177.397214,9.27624908 C177.397214,9.1931565 177.3838,9.09552272 177.318791,9.09552272 C177.253783,9.09552272 177.226954,9.13810767 177.201157,9.27624908 C177.136149,9.74779945 176.979303,9.95553089 176.679026,10.0936723 C176.378749,10.2183112 175.829788,10.2183112 175.528479,10.2183112 C174.390316,10.2183112 174.180844,10.0666672 174.155047,9.27624908 C174.141633,9.04047389 174.155047,7.66840772 174.155047,7.26644738 L174.155047,6.28283901 C174.155047,6.24129272 174.16743,6.19870778 174.23347,6.19870778 C174.429527,6.19870778 175.659528,6.21324898 175.97322,6.25479527 C176.41796,6.3098441 176.523212,6.44902416 176.562423,6.61520932 C176.614017,6.76789193 176.614017,6.89253079 176.614017,7.00262845 C176.614017,7.07221849 176.640846,7.11376477 176.69244,7.11376477 C176.769831,7.11376477 176.795628,6.98912591 176.795628,6.89253079 C176.795628,6.80943821 176.822457,6.36593159 176.848254,6.1301564 C176.874051,5.74377592 176.940091,5.54954702 176.940091,5.47995699 C176.940091,5.41140562 176.913263,5.38336187 176.874051,5.38336187 C176.83484,5.38336187 176.783246,5.4529519 176.704823,5.53604448 C176.58822,5.66068335 176.41796,5.67418589 176.14348,5.70222963 C175.881382,5.73027338 174.363487,5.73027338 174.220056,5.73027338 C174.155047,5.73027338 174.155047,5.68872709 174.155047,5.60459586 L174.155047,2.40345435 C174.155047,2.32036177 174.16743,2.27881549 174.220056,2.27881549 C174.351104,2.27881549 175.685325,2.29231803 175.881382,2.32036177 C176.509797,2.40345435 176.627432,2.48654693 176.704823,2.68077582 C176.757449,2.81891723 176.769831,3.01314613 176.769831,3.09623871 C176.769831,3.19283383 176.795628,3.24892132 176.861669,3.24892132 C176.913263,3.24892132 176.952474,3.17933128 176.965888,3.12428245 C176.991685,2.98614104 177.018514,2.4605805 177.030897,2.34944418 C177.057726,2.01707387 177.122734,1.8778938 177.122734,1.79480123 C177.122734,1.7397524 177.10932,1.68470356 177.070108,1.68470356 C177.018514,1.68470356 176.965888,1.72624985 176.913263,1.7397524 C176.822457,1.75325494 176.614017,1.79480123 176.392163,1.80934243 C176.130066,1.82284497 173.723721,1.80934243 173.645298,1.80934243 C173.58029,1.80934243 172.835272,1.78129868 172.312109,1.78129868 C172.182092,1.78129868 172.129466,1.80934243 172.129466,1.8778938 C172.129466,1.91944009 172.182092,1.97448892 172.221304,1.97448892 C172.325524,1.97345027 172.521581,1.98695281 172.613418,2.00149401 C172.992118,2.05654284 173.058159,2.25077174 173.083956,2.65273208 C173.109753,3.02664867 173.109753,3.36005764 173.109753,5.18913297 L173.109753,7.26644738 Z M180.693039,10.8404668 C181.321454,10.8404668 182.040675,10.7573742 182.524627,10.4260426 C183.347035,9.85789711 183.595718,9.11006392 183.595718,8.41727957 C183.595718,7.40562745 183.112798,6.58820423 181.713569,5.57655211 L181.386463,5.34077693 C180.248299,4.52335371 179.894364,4.09334962 179.894364,3.34551644 C179.894364,2.51355201 180.587788,2.07004539 181.425674,2.07004539 C182.459618,2.07004539 182.838318,2.51355201 182.916741,2.65273208 C182.981749,2.77737094 183.073587,3.09623871 183.085969,3.23438011 C183.099384,3.33201389 183.112798,3.38706272 183.190189,3.38706272 C183.268612,3.38706272 183.282027,3.30397015 183.282027,3.12324379 C183.282027,2.32036177 183.334652,1.93294264 183.334652,1.8778938 C183.334652,1.80934243 183.307824,1.79480123 183.217018,1.79480123 C183.125181,1.79480123 183.034375,1.79480123 182.812521,1.7397524 C182.538041,1.67016236 182.079886,1.60161099 181.621731,1.60161099 C180.103836,1.60161099 179.072988,2.43045944 179.072988,3.81602815 C179.072988,4.63449003 179.477485,5.35427947 180.718836,6.3389265 L181.242,6.75438938 C182.262529,7.55831006 182.694887,7.9602704 182.694887,8.80573736 C182.694887,9.69171196 182.105683,10.3709938 180.967519,10.3709938 C180.195673,10.3709938 179.333021,10.0666672 179.149347,9.20665904 C179.110135,9.04047389 179.110135,8.87428874 179.110135,8.77769362 C179.110135,8.68005984 179.070924,8.63851355 179.005915,8.63851355 C178.940907,8.63851355 178.91511,8.70810358 178.91511,8.83274245 C178.902727,9.02697135 178.850102,9.49852172 178.850102,10.0801698 C178.850102,10.3990375 178.863516,10.4405838 179.01933,10.5226377 C179.489867,10.7573742 180.156462,10.8404668 180.693039,10.8404668 L180.693039,10.8404668 Z" id="Fill-4" fill="#00659F" mask="url(#mask-8)"></path>
                                    </g>
                                </g>
                            </g>
                        </g>
                    </g>
                    <text id="Rick-Calvin,-DDS" font-family="OpenSans, Open Sans" font-size="12" font-weight="normal" letter-spacing="0.769999981" fill="#1D5575">
                        <tspan x="38" y="67">Rick Calvin, DD</tspan>
                        <tspan x="132.378125" y="67" letter-spacing="1.06875">S</tspan>
                    </text>
                </g>
            </g>
        </g>
    </g>
</svg>